<svg width="253" height="124" viewBox="0 0 253 124" fill="none" xmlns="http://www.w3.org/2000/svg">
<g clip-path="url(#clip0_1052_30878)">
<rect width="253" height="124" rx="12" fill="#FEF7FF"/>
</g>
<g clip-path="url(#clip1_1052_30878)">
<g clip-path="url(#clip2_1052_30878)">
<path d="M126.307 42.3071L114.405 36L102.604 42.3071H126.307Z" fill="url(#paint0_linear_1052_30878)"/>
<path d="M102.604 42.3071V55.0231L114.405 61.3302L102.604 42.3071Z" fill="url(#paint1_linear_1052_30878)"/>
<path d="M114.405 61.3302L126.307 55.0231V42.3071L114.405 61.3302Z" fill="url(#paint2_linear_1052_30878)"/>
<path d="M150.009 55.0229L138.209 61.33L126.307 55.0229H150.009Z" fill="url(#paint3_linear_1052_30878)"/>
<path d="M126.307 55.023V42.3071L138.209 36L126.307 55.023Z" fill="url(#paint4_linear_1052_30878)"/>
<path d="M138.209 36L150.009 42.3071V55.023L138.209 36Z" fill="url(#paint5_linear_1052_30878)"/>
<path d="M135.055 68.5527C128.85 68.5527 124.374 72.5201 124.374 78.7255C124.374 85.0326 128.748 88.8982 135.055 88.8982C141.363 88.8982 145.737 85.0326 145.737 78.7255C145.737 72.4184 141.363 68.5527 135.055 68.5527ZM135.055 84.6257C131.8 84.6257 129.46 82.1842 129.46 78.7255C129.46 75.2667 131.8 72.8253 135.055 72.8253C138.514 72.8253 140.65 75.165 140.65 78.7255C140.752 82.1842 138.412 84.6257 135.055 84.6257Z" fill="#4F525A"/>
<path d="M75.5451 69.5698L67 88.898H72.7985L80.8349 84.3203H74.2226L78.19 74.351L83.8868 88.898H89.38L80.8349 69.5698H75.5451Z" fill="#4F525A"/>
<path d="M177.069 69.5698H171.779L163.234 88.898H168.728L174.424 74.351L178.392 84.3203H171.779L179.816 88.898H185.614L177.069 69.5698Z" fill="#4F525A"/>
<path d="M95.7892 84.3203V69.5698H90.9062V88.898H92.6356H95.7892H102.096L104.945 84.3203H95.7892Z" fill="#4F525A"/>
<path d="M150.213 88.2877C148.687 87.8808 147.568 87.3721 146.652 86.8635L148.483 82.9978C149.297 83.5065 150.315 84.0151 151.535 84.3203C152.756 84.6255 153.875 84.8289 154.994 84.8289C157.334 84.8289 158.453 84.2186 158.453 83.0996C158.453 82.5909 158.148 82.184 157.537 81.9806C156.927 81.7771 155.91 81.5737 154.689 81.3702C153.163 81.1668 151.84 80.8616 150.925 80.5564C149.908 80.2512 149.094 79.7426 148.28 78.9288C147.568 78.1149 147.161 77.0977 147.161 75.6735C147.161 74.4527 147.466 73.4355 148.178 72.5199C148.89 71.6044 149.908 70.8923 151.23 70.3836C152.553 69.875 154.078 69.5698 155.91 69.5698C157.232 69.5698 158.554 69.6716 159.877 69.9767C161.199 70.2819 162.318 70.6888 163.132 71.1975L161.301 75.0631C159.572 74.1476 157.741 73.6389 155.808 73.6389C154.689 73.6389 153.773 73.8424 153.163 74.1476C152.553 74.4527 152.247 74.8597 152.247 75.3683C152.247 75.9787 152.553 76.3856 153.163 76.589C153.773 76.7925 154.791 76.9959 156.113 77.3011C157.639 77.6063 158.86 77.8097 159.877 78.1149C160.894 78.4201 161.708 78.9288 162.42 79.7426C163.132 80.5564 163.539 81.5737 163.539 82.9978C163.539 84.1168 163.234 85.2359 162.522 86.1514C161.81 87.0669 160.792 87.779 159.47 88.2877C158.148 88.7963 156.52 88.9998 154.689 88.9998C153.163 88.898 151.637 88.6946 150.213 88.2877Z" fill="#4F525A"/>
<path d="M119.593 81.7773C121.221 80.6583 122.34 79.0306 122.34 76.3857C122.34 71.6045 118.881 69.4683 114.812 69.4683L106.165 69.57V88.8982H111.048V73.8425L114.507 73.7408C116.236 73.7408 117.66 74.6564 117.66 76.6909C117.66 78.7255 115.931 79.5393 114.202 79.5393H112.879L114.202 81.7773L118.271 88.8982H123.764L119.593 81.7773Z" fill="#4F525A"/>
</g>
</g>
<defs>
<linearGradient id="paint0_linear_1052_30878" x1="102.566" y1="39.1679" x2="126.295" y2="39.1679" gradientUnits="userSpaceOnUse">
<stop stop-color="#800000"/>
<stop offset="0.5" stop-color="#FF0000"/>
<stop offset="1" stop-color="#FCA789"/>
</linearGradient>
<linearGradient id="paint1_linear_1052_30878" x1="109.656" y1="62.8835" x2="99.8243" y2="47.159" gradientUnits="userSpaceOnUse">
<stop stop-color="#800000"/>
<stop offset="0.5" stop-color="#FF0000"/>
<stop offset="1" stop-color="#FCA789"/>
</linearGradient>
<linearGradient id="paint2_linear_1052_30878" x1="123.84" y1="43.9108" x2="114.006" y2="59.6377" gradientUnits="userSpaceOnUse">
<stop stop-color="#800000"/>
<stop offset="0.5" stop-color="#FF0000"/>
<stop offset="1" stop-color="#FCA789"/>
</linearGradient>
<linearGradient id="paint3_linear_1052_30878" x1="150.051" y1="58.1407" x2="126.318" y2="58.1407" gradientUnits="userSpaceOnUse">
<stop stop-color="#021729"/>
<stop offset="0.5" stop-color="#095CA6"/>
<stop offset="1" stop-color="#99C4DE"/>
</linearGradient>
<linearGradient id="paint4_linear_1052_30878" x1="128.774" y1="53.3972" x2="138.606" y2="37.671" gradientUnits="userSpaceOnUse">
<stop stop-color="#021729"/>
<stop offset="0.5" stop-color="#095CA6"/>
<stop offset="1" stop-color="#99C4DE"/>
</linearGradient>
<linearGradient id="paint5_linear_1052_30878" x1="142.958" y1="34.4246" x2="152.791" y2="50.1512" gradientUnits="userSpaceOnUse">
<stop stop-color="#021729"/>
<stop offset="0.5" stop-color="#095CA6"/>
<stop offset="1" stop-color="#99C4DE"/>
</linearGradient>
<clipPath id="clip0_1052_30878">
<rect width="253" height="124" rx="12" fill="white"/>
</clipPath>
<clipPath id="clip1_1052_30878">
<rect width="253" height="124" rx="32" fill="white"/>
</clipPath>
<clipPath id="clip2_1052_30878">
<rect width="118.614" height="53" fill="white" transform="translate(67 36)"/>
</clipPath>
</defs>
</svg>
