<svg width="44" height="59" viewBox="0 0 44 59" fill="none" xmlns="http://www.w3.org/2000/svg">
<path fill-rule="evenodd" clip-rule="evenodd" d="M11.6851 37.0514V59H21.2395V41.0042C21.2495 38.8446 20.7991 37.6205 19.002 37.2177C17.2557 36.8258 14.5175 36.935 11.6851 37.0514ZM44.0002 9.76674H29.7558C25.7116 9.76674 21.3018 14.9328 21.3018 18.2727C21.3018 23.6899 23.5375 23.5706 31.5153 23.7725C31.5734 23.7738 31.5522 23.663 31.5663 23.6057C32.6264 19.304 35.0957 18.23 37.9293 18.23H44.0002L44.0002 9.76674ZM44.0002 3.80626e-05H28.7789C25.2686 3.80626e-05 21.3018 2.21116 21.3018 5.20057V15.398V15.4438C21.3018 12.3189 26.0239 8.39598 29.7183 8.39598H44.0002V3.80626e-05ZM10.8965 3.80626e-05V25.1978C10.8965 25.1978 10.4409 28.5159 14.937 28.9714C19.433 29.4269 28.3973 29.0439 31.1619 29.8992C33.9265 30.7544 33.7962 32.8212 33.7962 32.8212V59.0001H43.8526V28.8243C43.8526 28.8243 44.1011 26.2767 41.2846 25.4776C38.4681 24.6785 27.907 25.407 23.7894 24.544C20.1493 23.7808 20.0295 21.2704 20.0295 18.5862V5.45881C20.0295 3.0338 17.5894 3.80626e-05 15.1086 3.80626e-05H10.8965ZM0.0371059 3.80626e-05V29.9228C0.0371059 29.9228 -0.66883 35.0371 4.07753 35.7373C8.82391 36.4377 17.1906 35.059 19.9533 36.2338C22.7161 37.4087 22.5877 39.7095 22.5877 39.7095V59.0001H32.644V33.386C32.644 33.386 32.6828 31.5913 30.181 30.7924C27.6792 29.9935 17.6475 30.7567 13.5296 29.8929C9.88864 29.1292 9.76964 27.1192 9.76964 24.4351V2.16158e-05L0.0371059 3.80626e-05ZM0.0371059 35.2437V59.0001H10.2913V37.2619C8.7409 37.3135 2.97457 38.0185 0.0371059 35.2437Z" fill="url(#paint0_linear_1052_31120)"/>
<defs>
<linearGradient id="paint0_linear_1052_31120" x1="4.06052" y1="0.643215" x2="38.1861" y2="59.0496" gradientUnits="userSpaceOnUse">
<stop stop-color="#007CC3"/>
<stop offset="1" stop-color="#75C5F0"/>
</linearGradient>
</defs>
</svg>
