<svg width="83" height="94" viewBox="0 0 83 94" fill="none" xmlns="http://www.w3.org/2000/svg">
<g clip-path="url(#clip0_1052_31144)">
<path d="M0.428711 24.068V69.475C1.1973 69.475 5.37673 66.8857 7.37037 65.5912V28.0083L41.5002 8.39983V0.377441L0.428711 24.068Z" fill="url(#paint0_linear_1052_31144)"/>
<path d="M82.5717 69.475V24.068L41.5 0.377441V8.39983L75.6301 28.0083V65.5912L82.5717 69.475Z" fill="url(#paint1_linear_1052_31144)"/>
<path d="M0.428711 69.4751L41.5002 93.4946L82.5719 69.4751L75.6303 65.5913L41.5002 85.4721L7.37037 65.5913C5.37673 66.8858 1.1973 69.4751 0.428711 69.4751Z" fill="url(#paint2_linear_1052_31144)"/>
<path d="M7.37012 28.0084V65.5912L41.4999 85.4721L75.6301 65.5912V28.0084L41.4999 8.3999L7.37012 28.0084Z" fill="white"/>
<path d="M0.428711 69.475V24.068L41.5002 0.377441M0.428711 69.475L41.5002 93.4944L82.5719 69.475M0.428711 69.475C1.1973 69.475 5.37673 66.8856 7.37037 65.5912M41.5002 0.377441L82.5719 24.068V69.475M41.5002 0.377441V8.39983M82.5719 69.475L75.6303 65.5912M7.37037 65.5912V28.0083L41.5002 8.39983M7.37037 65.5912L41.5002 85.472L75.6303 65.5912M75.6303 65.5912V28.0083L41.5002 8.39983" stroke="url(#paint3_linear_1052_31144)"/>
<path d="M20.049 46.5303H18.1364L16.2995 43.571L14.4626 46.5303H12.6689L15.2892 42.4951L12.8364 38.7061H14.6841L16.386 41.5211L18.0554 38.7061H19.8599L17.3801 42.5861L20.049 46.5303Z" fill="#1C4295"/>
<path d="M21.375 38.7061H22.8823V42.4846L22.8607 43.4959L22.8067 44.6466H22.8391L26.4859 38.7061H28.4903V46.5303H26.9992V42.7733C26.9992 42.2705 27.0316 41.5249 27.0964 40.5366H27.0532L23.3902 46.5303H21.375V38.7061Z" fill="#1C4295"/>
<path d="M34.1597 46.5303L32.258 40.392H32.2093C32.2778 41.6408 32.312 42.474 32.312 42.8911V46.5303H30.8154V38.7061H33.0953L34.9647 44.6896H34.9971L36.9799 38.7061H39.2599V46.5303H37.6984V42.827C37.6984 42.6522 37.7002 42.4506 37.7038 42.2222C37.711 41.9938 37.7362 41.3875 37.7794 40.4026H37.7308L35.694 46.5303H34.1597Z" fill="#1C4295"/>
<path d="M40.9209 44.2612V42.9233H43.8221V44.2612H40.9209Z" fill="#1C4295"/>
<path d="M52.6521 42.6076C52.6521 43.9029 52.3281 44.898 51.6797 45.5937C51.0313 46.2895 50.1023 46.6376 48.892 46.6376C47.6816 46.6376 46.7526 46.2895 46.1042 45.5937C45.4558 44.898 45.1318 43.8991 45.1318 42.5971C45.1318 41.2947 45.4558 40.3011 46.1042 39.6159C46.756 38.9273 47.6888 38.583 48.9026 38.583C50.1164 38.583 51.0439 38.9292 51.685 39.6215C52.33 40.3135 52.6521 41.309 52.6521 42.6076ZM46.8874 42.6076C46.8874 43.4816 47.0549 44.14 47.39 44.5824C47.725 45.0248 48.2257 45.2461 48.892 45.2461C50.2283 45.2461 50.8961 44.3665 50.8961 42.6076C50.8961 40.845 50.2318 39.9639 48.9026 39.9639C48.2363 39.9639 47.7342 40.187 47.3953 40.6329C47.0568 41.0753 46.8874 41.7333 46.8874 42.6076Z" fill="#EE7D3C"/>
<path d="M54.6211 38.706H56.1284V42.4845L56.1067 43.4958L56.0527 44.6465H56.085L59.7317 38.706H61.7363V46.5303H60.2453V42.7733C60.2453 42.2704 60.2777 41.5249 60.3424 40.5365H60.299L56.6363 46.5303H54.6211V38.706ZM60.7962 36.1641C60.7277 36.8312 60.4737 37.3183 60.0344 37.6251C59.595 37.9283 58.9611 38.0801 58.1326 38.0801C57.279 38.0801 56.647 37.9336 56.2362 37.6411C55.8295 37.3486 55.6007 36.8562 55.5501 36.1641H57.025C57.0502 36.5316 57.1423 36.7902 57.3007 36.9401C57.4629 37.0864 57.7507 37.1595 58.165 37.1595C58.5289 37.1595 58.7989 37.0792 58.9755 36.9187C59.1556 36.7546 59.2653 36.503 59.3049 36.1641H60.7962Z" fill="#EE7D3C"/>
<path d="M70.3129 46.5303H68.6433V40.087H66.7092L66.6228 40.8043C66.3997 42.6273 66.2013 43.9081 66.0285 44.6466C65.8594 45.3816 65.6108 45.8988 65.283 46.1985C64.9552 46.4982 64.512 46.6447 63.9538 46.6375C63.6515 46.6375 63.3846 46.5983 63.1543 46.5198V45.1603C63.3633 45.2317 63.5594 45.2676 63.7433 45.2676C63.934 45.2676 64.0852 45.1819 64.1971 45.0105C64.3087 44.8357 64.413 44.5144 64.5105 44.0471C64.6114 43.5763 64.7427 42.8073 64.9049 41.7405C65.0705 40.6702 65.211 39.6589 65.326 38.7061H70.3129V46.5303Z" fill="#EE7D3C"/>
<path d="M28.0594 49.6665V51.0369H24.7422V57.4908H23.0674V49.6665H28.0594Z" fill="#1C4295"/>
<path d="M31.2872 53.3487H31.8382C32.3532 53.3487 32.7387 53.2487 32.9944 53.049C33.2501 52.8455 33.378 52.5514 33.378 52.166C33.378 51.7772 33.2699 51.4899 33.0538 51.3041C32.8413 51.1188 32.5063 51.0259 32.0489 51.0259H31.2872V53.3487ZM35.069 52.1071C35.069 52.949 34.8025 53.593 34.2694 54.0392C33.74 54.485 32.9854 54.7081 32.0057 54.7081H31.2872V57.4908H29.6123V49.6665H32.1354C33.0934 49.6665 33.821 49.8719 34.318 50.2822C34.8187 50.6888 35.069 51.2973 35.069 52.1071Z" fill="#1C4295"/>
<path d="M43.1216 49.6665L40.68 55.2004C40.3735 55.8962 40.0856 56.3956 39.8153 56.6988C39.5488 57.0023 39.232 57.2288 38.8646 57.3787C38.4972 57.5248 38.0505 57.598 37.5247 57.598C37.0744 57.598 36.6548 57.5444 36.2658 57.4375V56.014C36.5828 56.1423 36.9772 56.2065 37.449 56.2065C37.748 56.2065 37.9893 56.1385 38.1728 56.003C38.3567 55.8641 38.5098 55.6247 38.6324 55.2861L35.8984 49.6665H37.6705L39.6154 54.0283H39.6695L39.7666 53.7606L41.3984 49.6665H43.1216Z" fill="#1C4295"/>
<path d="M50.704 57.4908H49.0349V51.0474H46.128V57.4908H44.4531V49.6665H50.704V57.4908Z" fill="#1C4295"/>
<path d="M59.2802 57.4908H57.611V51.0474H54.7041V57.4908H53.0293V49.6665H59.2802V57.4908Z" fill="#1C4295"/>
</g>
<defs>
<linearGradient id="paint0_linear_1052_31144" x1="8.95525" y1="64.5591" x2="36.0282" y2="8.62456" gradientUnits="userSpaceOnUse">
<stop stop-color="#1B4598"/>
<stop offset="0.992573" stop-color="#0590D7"/>
</linearGradient>
<linearGradient id="paint1_linear_1052_31144" x1="42.5809" y1="4.30694" x2="78.2159" y2="64.1971" gradientUnits="userSpaceOnUse">
<stop stop-color="#F18108"/>
<stop offset="0.992573" stop-color="#FFC174"/>
</linearGradient>
<linearGradient id="paint2_linear_1052_31144" x1="77.408" y1="66.3452" x2="8.49167" y2="72.9503" gradientUnits="userSpaceOnUse">
<stop stop-color="#1B4598"/>
<stop offset="0.992573" stop-color="#0590D7"/>
</linearGradient>
<linearGradient id="paint3_linear_1052_31144" x1="-0.872855" y1="30.4614" x2="82.5718" y2="31.1914" gradientUnits="userSpaceOnUse">
<stop stop-color="#AAAAAA"/>
<stop offset="0.19659" stop-color="white"/>
<stop offset="0.689904" stop-color="#BABABA"/>
<stop offset="1" stop-color="white"/>
</linearGradient>
<clipPath id="clip0_1052_31144">
<rect width="83" height="94" fill="white"/>
</clipPath>
</defs>
</svg>
