<svg width="113" height="84" viewBox="0 0 113 84" fill="none" xmlns="http://www.w3.org/2000/svg">
<mask id="mask0_549_1037" style="mask-type:luminance" maskUnits="userSpaceOnUse" x="0" y="0" width="113" height="84">
<path d="M0 0H113V84H0V0Z" fill="white"/>
</mask>
<g mask="url(#mask0_549_1037)">
<path fill-rule="evenodd" clip-rule="evenodd" d="M90.2376 25.4996C90.2376 26.5628 90.1458 27.8037 89.9633 29.2217C89.7808 30.6403 89.5426 32.0584 89.2522 33.477C87.9368 39.7404 86.4762 44.2514 84.8704 47.0088C83.0081 50.2009 80.379 52.3075 76.9826 53.3323L77.1479 53.8642L77.366 54.5732L78.8455 58.8328L71.7675 58.8359L70.3569 54.3367H69.2607C64.55 54.3367 61.1646 53.2636 59.1008 51.1167C57.0387 48.9693 56.0068 45.6112 56.0068 41.0402C56.0068 39.9373 56.1342 38.2438 56.3896 35.9588C56.6456 33.6739 56.9371 31.8218 57.266 30.4038C58.6904 24.219 60.5522 19.8653 62.8524 17.3438C65.8109 14.075 70.3569 12.4396 76.4896 12.4396C81.3822 12.4396 84.9244 13.5418 87.115 15.7487C89.1966 17.8367 90.2376 21.087 90.2376 25.4996ZM80.379 25.0853C80.379 21.7762 78.8088 20.1216 75.6684 20.1216C73.1857 20.1216 71.3239 20.8703 70.0825 22.3669C68.6581 24.1008 67.4345 27.4291 66.4135 32.3543C66.0479 34.0089 65.7461 35.7223 65.509 37.4951C65.2714 39.2679 65.1526 40.5485 65.1526 41.3361C65.1526 44.1728 66.0296 45.867 67.7817 46.4181L66.5777 42.4H73.5329L74.4081 45.3543C75.4319 44.5666 76.3163 43.2966 77.0647 41.5436C77.8142 39.79 78.5173 37.318 79.1738 34.1266C79.9761 30.4236 80.379 27.4099 80.379 25.0853Z" fill="#FAFAFA"/>
<path fill-rule="evenodd" clip-rule="evenodd" d="M58.2612 13.0302L57.3304 17.4626C57.1846 18.3295 56.71 19.0776 55.9059 19.7079C55.103 20.3377 54.2083 20.6535 53.2229 20.6535H45.5004C43.4188 20.6535 42.1952 21.6195 41.8314 23.5489L41.6121 25.2041C41.6121 25.7949 41.7579 26.2574 42.05 26.5924C42.3427 26.9274 42.8713 27.2327 43.638 27.5082L49.6073 29.8718C51.1781 30.4632 52.3649 31.449 53.1684 32.8267C53.9724 34.2057 54.373 35.7222 54.373 37.3774C54.373 38.7551 54.2456 40.0561 53.9896 41.2766C52.7838 46.6744 51.2693 50.2398 49.4437 51.973C48.13 53.1948 46.0846 53.8047 43.3092 53.8047H29.3982C27.6449 53.8047 26.7686 52.9972 26.7686 51.3817C26.7686 50.9086 26.8414 50.2993 26.9889 49.5506L27.754 46.0966H31.4671C31.6577 46.114 31.862 46.1233 32.0824 46.1233H39.8594C41.2821 46.1233 42.3605 45.7486 43.09 45C43.638 44.4495 44.0581 43.5423 44.3508 42.2816C44.5328 41.494 44.6229 40.7063 44.6229 39.918C44.6229 38.4994 43.7482 37.4554 41.9955 36.7866L37.558 35.1909C36.0257 34.6386 34.875 33.654 34.1083 32.2366C33.341 30.8174 32.9587 29.2414 32.9587 27.5082C32.9587 26.9571 33.0046 26.2964 33.0948 25.5286C33.186 24.7608 33.3048 24.022 33.4506 23.3124C34.2541 19.6887 35.3313 17.127 36.6817 15.6304C38.2892 13.8972 40.6807 13.0302 43.8567 13.0302H58.2612Z" fill="#FAFAFA"/>
<path fill-rule="evenodd" clip-rule="evenodd" d="M31.4358 13.0302L30.5594 17.049C30.304 18.0732 29.8839 18.7426 29.3003 19.0571C28.7154 19.3735 27.7117 19.5308 26.2872 19.5308H16.3202L14.6208 27.8631H27.3283L26.4519 31.94C26.2333 33.0428 25.8132 33.7729 25.1922 34.1259C24.5718 34.4813 23.6949 34.659 22.5626 34.659H15.5528C14.6036 34.659 13.9189 34.8064 13.4988 35.1011C13.0787 35.3977 12.778 35.9984 12.5955 36.9037L10.7326 46.1233H20.7559C20.8793 46.1233 20.9998 46.1208 21.1157 46.1158H25.0987L24.1517 50.6138C23.8596 51.9148 23.4303 52.7712 22.8639 53.1842C22.298 53.5991 21.1932 53.8047 19.5507 53.8047H2.62898C1.09721 53.8047 -0.315179 53.0226 0.102627 50.9358L0.364904 49.7036L7.33675 16.9307L7.3379 16.9214L8.17408 13.0302H31.4358Z" fill="#FAFAFA"/>
<path fill-rule="evenodd" clip-rule="evenodd" d="M90.1811 11.3422C90.6465 4.99521 95.5701 -4.00543e-05 101.571 -4.00543e-05C107.882 -4.00543e-05 113 5.52093 113 12.3293C113 19.1376 107.882 24.6592 101.571 24.6592C95.2986 24.6592 90.2052 19.202 90.1455 12.45H92.6282C92.6896 17.7233 96.6709 21.9792 101.571 21.9792C106.468 21.9792 110.445 17.7332 110.515 12.4692L112.136 12.4748L112.141 12.2048C112.077 5.92218 107.31 0.874298 101.482 0.926933C95.985 0.976471 91.5034 5.54879 91.0431 11.3422H90.1811Z" fill="#FAFAFA"/>
<path fill-rule="evenodd" clip-rule="evenodd" d="M101.571 3.99539C102.538 3.99539 103.463 4.18735 104.316 4.53659L103.23 6.28961L103.174 6.27165C103.147 6.26298 103.119 6.25555 103.091 6.24812L103.039 6.23264C103.005 6.22273 102.971 6.21406 102.936 6.20539L102.907 6.19796L102.903 6.19672C102.857 6.18496 102.81 6.17505 102.764 6.16452L102.753 6.16205C102.713 6.15276 102.672 6.14471 102.632 6.13666L102.577 6.12675L102.489 6.11065L102.433 6.10198L102.355 6.09084L102.285 6.08093L102.209 6.07164L102.147 6.06483L102.072 6.0574L102 6.0512L101.926 6.04625C101.904 6.04439 101.883 6.04316 101.859 6.04192C101.824 6.04006 101.788 6.03882 101.753 6.0382L101.72 6.03634C101.671 6.0351 101.621 6.03449 101.571 6.03449C101.522 6.03449 101.473 6.0351 101.423 6.03634L101.391 6.0382C101.355 6.03882 101.319 6.04006 101.284 6.04192L101.218 6.04625L101.143 6.0512L101.071 6.0574L100.997 6.06483L100.934 6.07164L100.858 6.08093L100.788 6.09084L100.71 6.10198L100.654 6.11065L100.567 6.12675L100.512 6.13666C100.472 6.14471 100.431 6.15276 100.39 6.16205L100.38 6.16452C100.333 6.17505 100.287 6.18496 100.24 6.19672L100.237 6.19796L100.208 6.20539C100.173 6.21406 100.139 6.22273 100.104 6.23264L100.051 6.24812C100.024 6.25555 99.9963 6.26298 99.9688 6.27165L99.9137 6.28961L99.8357 6.31437L99.7788 6.33357L99.7042 6.35958L99.6457 6.38125L99.5768 6.40664L99.5074 6.43388L99.4574 6.45494C99.4322 6.46484 99.4087 6.47475 99.3846 6.48466C99.3627 6.49519 99.3409 6.50448 99.3191 6.51438L99.2566 6.54225L99.2066 6.56578C99.1051 6.61408 99.0041 6.66485 98.9053 6.71872L98.8996 6.72182C98.8669 6.7404 98.8348 6.75836 98.802 6.77693L98.782 6.78808C98.7492 6.80727 98.7177 6.82585 98.6855 6.84505L98.6672 6.85619C98.6362 6.87539 98.6069 6.89396 98.5753 6.91316L98.5512 6.92864C98.5208 6.94846 98.4916 6.96765 98.4623 6.98747L98.4422 7.00109C98.4118 7.02152 98.3808 7.0432 98.3492 7.06425L98.3343 7.0754C98.3027 7.09769 98.2717 7.11998 98.2413 7.14227L98.2333 7.14846C98.0267 7.30079 97.831 7.46674 97.645 7.6457L97.6324 7.65684C97.606 7.68223 97.5802 7.70824 97.5544 7.73425L97.5331 7.75592C97.5067 7.78193 97.4803 7.80917 97.4539 7.8358L97.4453 7.84447C97.4172 7.87481 97.3897 7.90515 97.361 7.93611L97.3587 7.93921C97.1515 8.16584 96.9598 8.41044 96.7859 8.66803L96.783 8.67175C96.2591 9.45135 95.8946 10.3641 95.7414 11.3542H93.8997C94.3474 7.21101 97.6112 3.99539 101.571 3.99539ZM107.403 11.3542C107.277 10.4049 106.88 9.44453 106.36 8.67175L106.358 8.66803C106.184 8.41044 105.993 8.16584 105.785 7.93921L105.782 7.93611C105.754 7.90515 105.726 7.87481 105.697 7.84447L105.688 7.8358C105.663 7.80917 105.637 7.78193 105.611 7.75592L105.589 7.73425C105.564 7.70824 105.537 7.68223 105.512 7.65684L105.499 7.6457C105.312 7.46674 105.116 7.30079 104.91 7.14846L104.902 7.14227C104.878 7.12493 104.854 7.10698 104.829 7.08902L105.874 5.40722C107.702 6.73235 108.976 8.87795 109.243 11.3542H109.243C109.281 11.6589 109.303 12.0973 109.295 12.475L109.295 12.4818L109.294 12.5413H109.293C109.188 17.0448 105.772 20.6636 101.571 20.6636C97.3506 20.6636 93.9204 17.0102 93.8486 12.475H95.6593C95.6737 14.1128 96.2602 15.6027 97.214 16.7247L97.2169 16.7284C97.2795 16.8015 97.3432 16.8733 97.4092 16.9433L97.4166 16.9513C97.4476 16.9848 97.4792 17.017 97.5113 17.0492L97.5153 17.0541C97.5475 17.0876 97.5813 17.1198 97.614 17.1526L97.6192 17.1575C97.6531 17.1904 97.6869 17.2226 97.7208 17.2535L97.7214 17.2548C97.7558 17.287 97.7925 17.3198 97.8281 17.3514L97.8339 17.3557C97.8683 17.3854 97.9022 17.4158 97.9372 17.4449L97.9492 17.4548C98.056 17.5446 98.1661 17.6313 98.2798 17.713L98.3039 17.7297C98.3355 17.7526 98.367 17.7755 98.3992 17.7972L98.4152 17.8077C98.4491 17.8313 98.4841 17.8554 98.5203 17.8777L98.5363 17.8882C98.5725 17.9118 98.6075 17.9347 98.6431 17.9557L98.65 17.9607C98.6884 17.9842 98.7274 18.0071 98.767 18.03L98.7854 18.0412C98.8216 18.0616 98.8571 18.082 98.8933 18.1019L98.9088 18.1105C98.9455 18.1303 98.9805 18.1495 99.0178 18.1687L99.0678 18.1935C99.0947 18.2071 99.12 18.2201 99.1464 18.2331L99.1877 18.2517C99.2181 18.2666 99.2497 18.2821 99.2801 18.2963L99.3082 18.3087C99.3427 18.3242 99.3777 18.3403 99.4138 18.3539L99.4397 18.365C99.4758 18.3799 99.5114 18.3954 99.547 18.4096L99.5768 18.4208C99.6135 18.4344 99.6497 18.448 99.6853 18.461L99.7059 18.4678C99.7438 18.4821 99.7817 18.4951 99.8184 18.5081C99.8575 18.5198 99.8965 18.5328 99.9355 18.5446L99.9544 18.5508C99.9923 18.5626 100.031 18.5737 100.07 18.5842L100.097 18.5923C100.126 18.601 100.155 18.6084 100.186 18.6158L100.241 18.6307L100.244 18.6313C100.289 18.6424 100.335 18.6536 100.381 18.6635C100.423 18.6728 100.464 18.6814 100.505 18.6889L100.527 18.6932C100.567 18.7019 100.607 18.7087 100.648 18.7155L100.672 18.7198C100.807 18.7415 100.943 18.7589 101.081 18.7712L101.117 18.7743H101.119C101.169 18.7793 101.219 18.7818 101.268 18.7842L101.269 18.7849C101.319 18.788 101.369 18.7898 101.418 18.7911H101.42C101.471 18.7923 101.521 18.7935 101.571 18.7935C101.623 18.7935 101.673 18.7923 101.723 18.7911H101.725C101.774 18.7898 101.824 18.788 101.875 18.7849L101.875 18.7842C101.925 18.7818 101.975 18.7793 102.023 18.7743H102.027L102.062 18.7712C102.201 18.7589 102.336 18.7415 102.47 18.7198L102.495 18.7155C102.537 18.7087 102.577 18.7019 102.617 18.6932L102.638 18.6889C102.679 18.6814 102.721 18.6728 102.763 18.6635C102.808 18.6536 102.853 18.6424 102.899 18.6313L102.902 18.6307L102.958 18.6158C102.988 18.6084 103.017 18.601 103.047 18.5923L103.074 18.5842C103.112 18.5737 103.151 18.5626 103.188 18.5508L103.208 18.5446C103.247 18.5328 103.286 18.5211 103.324 18.5081C103.362 18.4951 103.4 18.4821 103.438 18.4678L103.458 18.461C103.494 18.448 103.53 18.4338 103.565 18.4208L103.596 18.4096C103.633 18.3948 103.667 18.3799 103.704 18.365L103.73 18.3539C103.765 18.339 103.8 18.3242 103.835 18.3087L103.862 18.2963C103.894 18.2821 103.925 18.2666 103.956 18.2517L103.996 18.2331C104.022 18.2201 104.049 18.2071 104.075 18.1935L104.126 18.1687C104.162 18.1495 104.198 18.1297 104.235 18.1105L104.25 18.1019C104.286 18.082 104.322 18.0616 104.357 18.0412L104.377 18.03C104.415 18.0071 104.453 17.9842 104.493 17.9607L104.5 17.9557C104.537 17.9347 104.571 17.9118 104.608 17.8882L104.623 17.8777C104.659 17.8554 104.694 17.8313 104.729 17.8077L104.744 17.7972C104.776 17.7755 104.809 17.752 104.84 17.7297L104.863 17.713C104.977 17.6306 105.088 17.5446 105.194 17.4548L105.206 17.4449C105.241 17.4158 105.276 17.3854 105.31 17.3557L105.315 17.3514C105.351 17.3198 105.387 17.287 105.423 17.2548V17.2535C105.457 17.2219 105.491 17.1904 105.523 17.1575L105.529 17.1526C105.563 17.1198 105.595 17.0876 105.628 17.0541L105.633 17.0492C105.665 17.017 105.695 16.9848 105.726 16.9513L105.735 16.9433C105.8 16.8733 105.864 16.8015 105.926 16.7284L105.929 16.7247C106.883 15.6027 107.469 14.1128 107.484 12.475C107.492 12.1004 107.454 11.7257 107.403 11.3542ZM103.764 6.48714L103.825 6.51438L103.887 6.54225L103.937 6.56578C104.039 6.61408 104.139 6.66485 104.238 6.71872L104.244 6.72182C104.277 6.7404 104.309 6.75836 104.342 6.77693L104.357 6.7856L105.407 5.09327C105.221 4.97933 105.031 4.87283 104.837 4.77499L103.764 6.48714Z" fill="#FAFAFA"/>
<path fill-rule="evenodd" clip-rule="evenodd" d="M98.8043 16.7815L99.7897 15.1975C100.348 15.5462 100.935 15.7202 101.549 15.7202C102.235 15.7202 102.865 15.5226 103.446 15.1257C104.025 14.7288 104.434 14.0916 104.675 13.2148H101.021L102.112 11.4599H104.675C104.591 10.7664 104.253 10.1509 103.658 9.61465C103.573 9.53725 103.485 9.46542 103.394 9.39792L104.358 7.8443C104.593 8.01025 104.788 8.19664 105.008 8.40965C105.896 9.37563 106.553 10.6494 106.553 12.2377C106.553 13.7603 106.09 15.0112 105.177 16.0261C104.264 17.0434 103.068 17.667 101.576 17.667C100.603 17.667 99.6101 17.3394 98.8043 16.7815ZM103.888 7.54274L102.919 9.10875C102.71 9.0072 102.492 8.93103 102.264 8.88088L103.281 7.2548C103.489 7.33406 103.691 7.43376 103.888 7.54274ZM102.737 7.08142C102.36 6.98297 101.963 6.93591 101.549 6.93591C100.792 6.93591 100.085 7.14087 99.3547 7.49506C99.0792 7.64615 98.736 7.88207 98.6562 7.9892L99.8178 9.27037C100.334 8.98057 100.988 8.80905 101.583 8.80905C101.61 8.80905 101.638 8.80967 101.666 8.81028L102.737 7.08142Z" fill="#FAFAFA"/>
<path fill-rule="evenodd" clip-rule="evenodd" d="M4.3772 70.2056C4.3772 70.6769 4.07246 70.9122 3.46354 70.9122H0.879802C0.563579 70.9122 0.337458 70.8428 0.20259 70.7053C0.0671472 70.5666 0 70.3276 0 69.987V63.0474C0 62.3657 0.284659 62.0251 0.85742 62.0251H3.47444C4.06155 62.0251 4.35482 62.2685 4.35482 62.7552C4.35482 63.2419 4.05581 63.4858 3.45952 63.4858H1.43248V65.616H3.29022C3.88651 65.616 4.18552 65.8494 4.18552 66.3163C4.18552 66.7826 3.88651 67.016 3.29022 67.016H1.43248V69.4626H3.49338C4.08221 69.4626 4.3772 69.7102 4.3772 70.2056ZM9.71456 70.1815C9.71456 70.6688 9.42129 70.9122 8.83418 70.9122H6.35145C6.03637 70.9122 5.81255 70.8366 5.68055 70.6861C5.54913 70.5363 5.48313 70.2911 5.48313 69.9517V62.9601C5.48313 62.2889 5.72245 61.9514 6.19994 61.9514C6.67743 61.9514 6.91618 62.2963 6.91618 62.9849V69.4626H8.75154C9.39259 69.4626 9.71456 69.7028 9.71456 70.1815ZM16.3489 69.6948C16.3489 70.0353 16.1343 70.3313 15.7062 70.5827C15.3894 70.7697 15.0324 70.8998 14.6341 70.9728C14.3328 71.0298 14.0395 71.0577 13.7537 71.0577C12.5801 71.0577 11.64 70.6032 10.933 69.6948C10.2638 68.8421 9.92862 67.7702 9.92862 66.4804C9.92862 65.198 10.2672 64.123 10.9439 63.2549C11.659 62.3372 12.603 61.879 13.7761 61.879C14.8143 61.879 15.5627 62.1712 16.0218 62.7552C16.1498 62.9174 16.2135 63.0883 16.2135 63.2666C16.2135 63.4456 16.1515 63.601 16.0276 63.7354C15.903 63.8691 15.7561 63.936 15.5914 63.936C15.5013 63.936 15.3848 63.8914 15.2413 63.8023C14.9308 63.6159 14.641 63.4821 14.3707 63.4004C14.1956 63.3521 13.981 63.3279 13.725 63.3279C13.0088 63.3279 12.4395 63.6766 12.0177 64.3744C11.6549 64.9831 11.4742 65.6934 11.4742 66.5045C11.4742 67.3244 11.659 68.0223 12.0291 68.5994C12.4584 69.2638 13.0352 69.5969 13.7589 69.5969C14.0751 69.5969 14.3443 69.5623 14.5624 69.4935C14.7805 69.4242 15.0077 69.3251 15.2465 69.1957C15.4835 69.0656 15.6591 69.0006 15.771 69.0006C15.9386 69.0006 16.0763 69.0712 16.1854 69.2136C16.2938 69.3554 16.3489 69.5152 16.3489 69.6948ZM24.4049 66.4866C24.4049 67.7671 24.0772 68.8279 23.4229 69.6725C22.7239 70.5623 21.7913 71.0094 20.6251 71.0094C19.467 71.0094 18.5373 70.5592 17.8382 69.6601C17.1765 68.8161 16.8454 67.7585 16.8454 66.4866C16.8454 65.198 17.1725 64.1366 17.8273 63.3013C18.5264 62.4016 19.4595 61.9514 20.6251 61.9514C21.7982 61.9514 22.7348 62.3985 23.4344 63.2889C24.0812 64.1249 24.4049 65.1906 24.4049 66.4866ZM20.6251 63.3762C19.9898 63.3762 19.4572 63.64 19.0302 64.1657C18.6033 64.6927 18.3915 65.4661 18.3915 66.4866C18.3915 67.3287 18.5642 68.0322 18.908 68.6006C19.3046 69.2557 19.8762 69.5845 20.6251 69.5845C21.3735 69.5845 21.9491 69.2557 22.3538 68.6006C22.6895 68.0408 22.8594 67.3368 22.8594 66.4866C22.8594 65.4581 22.6487 64.6828 22.2252 64.1596C21.8022 63.6382 21.2685 63.3762 20.6251 63.3762ZM34.1872 70.2056C34.2251 70.4576 34.1688 70.6645 34.0162 70.8267C33.9037 70.9481 33.7453 71.0094 33.5404 71.0094C33.2752 71.0094 33.0876 70.9202 32.9722 70.7412C32.8827 70.6193 32.819 70.4007 32.7805 70.0861L32.008 64.1187H31.9868L30.4757 69.9747C30.3167 70.5914 30.02 70.8998 29.5839 70.8998C29.1477 70.8998 28.8504 70.5914 28.6926 69.9747L27.1579 64.1187H27.1356L26.3832 70.0843C26.3459 70.4007 26.2816 70.6236 26.1915 70.7536C26.0784 70.9239 25.8862 71.0094 25.6141 71.0094C25.1831 71.0094 24.9691 70.7412 24.9691 70.2056C24.9691 70.1895 24.98 70.096 25.0029 69.9257L25.1384 68.9282L25.951 63.0233C25.9958 62.71 26.1238 62.453 26.3344 62.2517C26.545 62.0511 26.7952 61.9514 27.0885 61.9514C27.6377 61.9514 27.9855 62.248 28.1365 62.8406L29.5592 68.5864L29.6028 68.5882L31.0169 62.8406C31.1673 62.248 31.5168 61.9514 32.066 61.9514C32.3667 61.9514 32.6227 62.0536 32.8333 62.2561C33.044 62.4586 33.1719 62.7168 33.2167 63.0332L34.1872 70.2056ZM43.4506 68.1771C43.4506 69.0613 43.1614 69.7616 42.5823 70.2805C42.0406 70.766 41.3524 71.0094 40.5174 71.0094C40.0129 71.0094 39.5205 70.9202 39.039 70.7412C38.3848 70.5059 38.0576 70.1728 38.0576 69.7437C38.0576 69.5319 38.1219 69.366 38.2493 69.244C38.3773 69.122 38.5391 69.0613 38.7343 69.0613C38.8175 69.0613 38.9902 69.1183 39.2531 69.2316C39.6141 69.3777 39.8023 69.4551 39.8178 69.4626C40.1036 69.5604 40.4003 69.6093 40.7091 69.6093C41.0402 69.6093 41.3278 69.4811 41.5722 69.226C41.8167 68.9703 41.939 68.6656 41.939 68.309C41.939 67.7888 41.6113 67.3857 40.957 67.0928C40.3481 66.8253 39.7392 66.5584 39.1297 66.2915C38.4749 65.8698 38.1477 65.2444 38.1477 64.419C38.1477 63.6499 38.4226 63.0375 38.9713 62.5849C39.4752 62.1626 40.0956 61.9514 40.833 61.9514C41.5929 61.9514 42.176 62.1198 42.5823 62.4586C42.8079 62.6456 42.9209 62.8586 42.9209 63.1001C42.9209 63.3013 42.8584 63.4611 42.7344 63.5787C42.6099 63.6951 42.4538 63.7533 42.2661 63.7533C42.1307 63.7533 41.8994 63.6828 41.5722 63.541C41.2451 63.3992 40.9759 63.3279 40.7659 63.3279C40.4571 63.3279 40.1954 63.4183 39.9808 63.601C39.7667 63.7843 39.6594 64.0394 39.6594 64.3726C39.6594 64.6475 39.765 64.8587 39.9756 65.006C40.1415 65.1193 40.4388 65.263 40.8669 65.4413C41.7771 65.8228 42.3677 66.1237 42.638 66.3429C43.1803 66.7782 43.4506 67.3919 43.4506 68.1771ZM49.0359 62.7434C49.0359 62.2641 48.7312 62.0251 48.1217 62.0251H44.4211C43.8116 62.0251 43.5075 62.2641 43.5075 62.7434C43.5075 63.214 43.8082 63.4493 44.4096 63.4493H45.5494V70.0112C45.5494 70.6769 45.7847 71.0094 46.2542 71.0094C46.7397 71.0094 46.9825 70.6769 46.9825 70.0112V63.4493H48.1389C48.7369 63.4493 49.0359 63.214 49.0359 62.7434ZM55.2192 70.3276C55.2192 70.5301 55.1498 70.6948 55.0126 70.8205C54.8731 70.9468 54.7079 71.0094 54.5116 71.0094C54.1678 71.0094 53.9256 70.7796 53.7827 70.3233L53.3293 68.9034H50.0047L49.5358 70.366C49.3929 70.7939 49.1628 71.0094 48.846 71.0094C48.6503 71.0094 48.485 70.9468 48.353 70.8205C48.2215 70.6948 48.1555 70.5264 48.1555 70.3158C48.1555 70.153 48.1785 70.0069 48.2233 69.8768L50.6268 62.9013C50.8529 62.2437 51.2093 61.9149 51.6983 61.9149C52.2028 61.9149 52.5563 62.2195 52.7594 62.8288L55.1291 69.8651C55.1888 70.0434 55.2192 70.1976 55.2192 70.3276ZM52.9064 67.5393L51.6857 63.6679C51.673 63.692 51.6541 63.7335 51.6329 63.7899L50.4368 67.5393H52.9064ZM62.7443 70.1313C62.7443 70.7412 62.5285 71.0459 62.0964 71.0459C61.7899 71.0459 61.519 70.8632 61.2803 70.4998L57.3972 64.6995V70.0192C57.3972 70.6787 57.1539 71.0094 56.6689 71.0094C56.1989 71.0094 55.9642 70.6769 55.9642 70.0112V62.9013C55.9642 62.2517 56.1777 61.9279 56.6069 61.9279C56.9002 61.9279 57.1636 62.0975 57.3972 62.4394L61.3118 68.1851V62.9397C61.3118 62.2641 61.5466 61.9279 62.0177 61.9279C62.5021 61.9279 62.7443 62.2641 62.7443 62.9397V70.1313ZM70.7676 66.3708C70.7676 67.7021 70.4548 68.7734 69.8309 69.5845C69.1543 70.4694 68.2131 70.9122 67.0096 70.9122H65.0698C64.4678 70.9122 64.1665 70.6193 64.1665 70.0353V63.0357C64.1665 62.6784 64.2359 62.4208 64.3754 62.2623C64.5148 62.1044 64.7495 62.0251 65.0813 62.0251H66.8742C67.8073 62.0251 68.5781 62.2604 69.1876 62.731C69.6989 63.1286 70.0944 63.6642 70.3727 64.3379C70.6356 64.9707 70.7676 65.6488 70.7676 66.3708ZM69.2209 66.3652C69.2209 65.4698 69.0166 64.7701 68.6085 64.2673C68.1775 63.7205 67.5514 63.4493 66.7358 63.4493H65.6001V69.5121H66.826C67.6443 69.5121 68.2607 69.1957 68.6757 68.5604C69.0384 68.0068 69.2209 67.2761 69.2209 66.3652ZM78.237 70.3276C78.237 70.5301 78.167 70.6948 78.0298 70.8205C77.8904 70.9468 77.7251 71.0094 77.5299 71.0094C77.1856 71.0094 76.9434 70.7796 76.7993 70.3233L76.3465 68.9034H73.0225L72.5541 70.366C72.4112 70.7939 72.18 71.0094 71.8643 71.0094C71.668 71.0094 71.5027 70.9468 71.3707 70.8205C71.2393 70.6948 71.1733 70.5264 71.1733 70.3158C71.1733 70.153 71.1968 70.0069 71.2405 69.8768L73.644 62.9013C73.8701 62.2437 74.2277 61.9149 74.7166 61.9149C75.2199 61.9149 75.5741 62.2195 75.7772 62.8288L78.1463 69.8651C78.2066 70.0434 78.237 70.1976 78.237 70.3276ZM75.9241 67.5393L74.7029 63.6679C74.6902 63.692 74.6707 63.7335 74.6506 63.7899L73.4546 67.5393H75.9241ZM84.4874 70.3524C84.4874 70.5549 84.4237 70.7196 84.2957 70.8447C84.1683 70.971 84.0082 71.0335 83.82 71.0335C83.5795 71.0335 83.3327 70.8756 83.0848 70.5592L80.4706 67.1863C80.4706 67.1863 80.4517 67.1665 80.4144 67.1262V70.0409C80.4144 70.7029 80.1722 71.0335 79.6867 71.0335C79.2161 71.0335 78.9808 70.701 78.9808 70.0335V63.0375C78.9808 62.362 79.2792 62.0251 79.8732 62.0251H81.4859C82.306 62.0251 82.9677 62.24 83.4722 62.6697C84.0214 63.1323 84.2957 63.7979 84.2957 64.6661C84.2957 66.1677 83.5554 66.9758 82.073 67.0897L84.1264 69.5362C84.3669 69.8198 84.4874 70.0923 84.4874 70.3524ZM82.8059 64.7336C82.8059 63.8611 82.3611 63.4252 81.4698 63.4252H80.4144V66.042C80.6038 66.0903 80.9166 66.1157 81.355 66.1157C82.3232 66.1157 82.8059 65.655 82.8059 64.7336ZM91.9907 66.3708C91.9907 67.7021 91.6779 68.7734 91.0547 69.5845C90.3775 70.4694 89.4368 70.9122 88.2333 70.9122H86.2918C85.6915 70.9122 85.3902 70.6193 85.3902 70.0353V63.0357C85.3902 62.6784 85.4591 62.4208 85.5985 62.2623C85.7385 62.1044 85.9733 62.0251 86.3044 62.0251H88.0979C89.0316 62.0251 89.8018 62.2604 90.4113 62.731C90.9221 63.1286 91.3181 63.6642 91.5964 64.3379C91.8593 64.9707 91.9907 65.6488 91.9907 66.3708ZM90.4452 66.3652C90.4452 65.4698 90.2403 64.7701 89.8317 64.2673C89.4007 63.7205 88.7751 63.4493 87.9596 63.4493H86.8232V69.5121H88.0491C88.8675 69.5121 89.4839 69.1957 89.8994 68.5604C90.2621 68.0068 90.4452 67.2761 90.4452 66.3652ZM24.2017 79.1849C24.2017 80.4655 23.874 81.5268 23.2204 82.3708C22.5208 83.2613 21.5882 83.7071 20.4214 83.7071C19.2638 83.7071 18.3347 83.2576 17.6345 82.3584C16.9728 81.5151 16.6416 80.4574 16.6416 79.1849C16.6416 77.897 16.9688 76.8356 17.6236 75.9997C18.3238 75.1012 19.2558 74.6504 20.4214 74.6504C21.595 74.6504 22.5322 75.0968 23.2313 75.9879C23.8786 76.8232 24.2017 77.8889 24.2017 79.1849ZM20.4214 76.0746C19.7867 76.0746 19.2541 76.3384 18.8271 76.8641C18.4007 77.3911 18.1877 78.1645 18.1877 79.1849C18.1877 80.0271 18.3605 80.7318 18.7048 81.2996C19.102 81.9547 19.6736 82.2829 20.4214 82.2829C21.1704 82.2829 21.746 81.9547 22.15 81.2996C22.4863 80.7392 22.6562 80.0357 22.6562 79.1849C22.6562 78.1564 22.4456 77.3818 22.0226 76.8579C21.5991 76.3365 21.0653 76.0746 20.4214 76.0746ZM29.5161 75.4665C29.5161 75.9446 29.2137 76.1842 28.6094 76.1842H26.6839V78.3143H28.4177C29.0065 78.3143 29.3021 78.544 29.3021 79.0029C29.3021 79.4778 29.0065 79.715 28.4177 79.715H26.6839V82.6941C26.6839 83.3684 26.4417 83.7071 25.9562 83.7071C25.4861 83.7071 25.2508 83.3752 25.2508 82.7095V75.7458C25.2508 75.0646 25.5367 74.7235 26.1083 74.7235H28.6587C29.2303 74.7235 29.5161 74.9711 29.5161 75.4665ZM41.2618 83.3684C41.2618 83.5473 41.2015 83.696 41.081 83.8173C40.961 83.9393 40.8176 84 40.6523 84C40.4497 84 40.2574 83.9065 40.0772 83.7201C39.9194 83.5573 39.6789 83.3102 39.3547 82.9777C38.7836 83.4644 38.0691 83.7071 37.2111 83.7071C36.053 83.7071 35.1238 83.2576 34.4236 82.3584C33.7619 81.5151 33.4313 80.4574 33.4313 79.1849C33.4313 77.905 33.759 76.8437 34.4127 75.9997C35.1129 75.1012 36.0449 74.6504 37.2111 74.6504C38.3848 74.6504 39.3214 75.0968 40.0204 75.9879C40.6678 76.8313 40.9909 77.897 40.9909 79.1874C40.9909 80.2407 40.7447 81.1739 40.254 81.9832L41.0213 82.7746C41.1808 82.9368 41.2618 83.1337 41.2618 83.3684ZM37.2111 76.0746C36.5683 76.0746 36.034 76.3409 35.6105 76.8697C35.1875 77.4016 34.9769 78.1725 34.9769 79.1849C34.9769 80.1738 35.1915 80.9342 35.6179 81.4692C36.0449 82.0036 36.581 82.2711 37.2266 82.2711C37.6456 82.2711 38.014 82.1417 38.3285 81.8823C38.2832 81.8408 38.1776 81.7275 38.0117 81.5405C37.7569 81.2488 37.6283 81.0178 37.6283 80.8469C37.6283 80.668 37.6834 80.5181 37.7902 80.3968C37.8992 80.2748 38.037 80.2141 38.2005 80.2141C38.3584 80.2141 38.5254 80.2989 38.7044 80.4698C38.8473 80.616 38.9902 80.7615 39.1314 80.9082C39.3397 80.3664 39.4453 79.7899 39.4453 79.1831C39.4453 78.1626 39.2364 77.3892 38.8175 76.8641C38.398 76.3384 37.8619 76.0746 37.2111 76.0746ZM48.6635 80.0958C48.6635 81.216 48.3679 82.0971 47.7779 82.7424C47.1879 83.3857 46.373 83.7071 45.3348 83.7071C44.2897 83.7071 43.4713 83.3876 42.8807 82.7479C42.2902 82.107 41.9952 81.224 41.9952 80.0958V75.6467C41.9952 74.9835 42.2299 74.6504 42.7005 74.6504C43.1855 74.6504 43.4283 74.9835 43.4283 75.6467V79.9868C43.4283 80.6828 43.5786 81.2302 43.8811 81.6259C44.2128 82.0482 44.696 82.2594 45.329 82.2594C45.9558 82.2594 46.435 82.0439 46.7661 81.6141C47.0766 81.2104 47.2304 80.6661 47.2304 79.9868V75.6467C47.2304 74.9835 47.464 74.6504 47.93 74.6504C48.419 74.6504 48.6635 74.9835 48.6635 75.6467V80.0958ZM56.4497 83.026C56.4497 83.2285 56.3791 83.3932 56.2419 83.5189C56.1025 83.6452 55.9372 83.7071 55.7421 83.7071C55.3977 83.7071 55.1544 83.478 55.012 83.0216L54.5592 81.6018H51.2346L50.7663 83.065C50.6234 83.4929 50.3921 83.7071 50.0758 83.7071C49.8801 83.7071 49.7149 83.6452 49.5829 83.5189C49.4514 83.3932 49.3854 83.2254 49.3854 83.0142C49.3854 82.852 49.4078 82.7058 49.4532 82.5758L51.8567 75.5997C52.0817 74.9427 52.4404 74.6145 52.9287 74.6145C53.4321 74.6145 53.7856 74.9185 53.9888 75.5266L56.359 82.564C56.4187 82.7424 56.4497 82.8965 56.4497 83.026ZM54.1357 80.2382L52.915 76.3669C52.9023 76.391 52.8834 76.4319 52.8628 76.4889L51.6667 80.2382H54.1357ZM61.4249 82.8798C61.4249 83.3672 61.1316 83.6099 60.5439 83.6099H58.0624C57.7461 83.6099 57.5235 83.5356 57.3915 83.3857C57.2595 83.2353 57.1935 82.9894 57.1935 82.6507V75.6591C57.1935 74.9879 57.4322 74.6504 57.9097 74.6504C58.3872 74.6504 58.6265 74.9953 58.6265 75.6832V82.1615H60.4625C61.1035 82.1615 61.4249 82.4012 61.4249 82.8798ZM63.4451 82.6879C63.4451 83.3672 63.2063 83.7071 62.7282 83.7071C62.2508 83.7071 62.012 83.3715 62.012 82.6996V75.6591C62.012 74.9879 62.2508 74.6504 62.7282 74.6504C63.2063 74.6504 63.4451 74.9879 63.4451 75.6591V82.6879ZM69.6278 75.4418C69.6278 74.9625 69.323 74.7235 68.7141 74.7235H65.0124C64.4041 74.7235 64.0993 74.9625 64.0993 75.4418C64.0993 75.9124 64.3995 76.1483 65.0015 76.1483H66.1419V82.7095C66.1419 83.3752 66.376 83.7071 66.8466 83.7071C67.3316 83.7071 67.5738 83.3752 67.5738 82.7095V76.1483H68.7308C69.3293 76.1483 69.6278 75.9124 69.6278 75.4418ZM75.5855 75.3266C75.5855 75.4783 75.4954 75.7037 75.3146 76.0015L73.2268 79.4345V82.6978C73.2268 83.3789 72.9886 83.7201 72.5105 83.7201C72.033 83.7201 71.7937 83.3789 71.7937 82.6978V79.4345L69.7179 76.0139C69.5371 75.7161 69.4476 75.4783 69.4476 75.3018C69.4476 75.1012 69.513 74.9427 69.645 74.825C69.7741 74.7098 69.9342 74.6504 70.1231 74.6504C70.3911 74.6504 70.6321 74.825 70.8427 75.1761L72.5105 77.9502L74.1972 75.1736C74.4153 74.825 74.6638 74.6504 74.9416 74.6504C75.123 74.6504 75.275 74.7154 75.399 74.8436C75.523 74.973 75.5855 75.1334 75.5855 75.3266Z" fill="#FAFAFA"/>
</g>
</svg>
