<svg width="152" height="24" viewBox="0 0 152 24" fill="none" xmlns="http://www.w3.org/2000/svg">
<g clip-path="url(#clip0_45_1573)">
<path d="M24.4561 9.01074H0V15.0315H24.4561V9.01074Z" fill="#EF7622"/>
<path d="M24.4561 18.0205H0V24.0413H24.4561V18.0205Z" fill="#EF4F24"/>
<path d="M24.4561 0H0V6.02076H24.4561V0Z" fill="#FBAE18"/>
<path d="M131.924 19.7227L145.149 4.27631H131.924V0.0410156H151.742V4.27631L138.354 19.7227H151.742V23.9995H131.924V19.7227Z" fill="#231F20"/>
<path d="M64.6202 23.9995L54.3657 0.0410156H59.9813L67.0211 17.8957L74.2643 0.0410156H79.5543L69.7068 23.9995H64.6202Z" fill="#231F20"/>
<path d="M117.195 4.8161L113.777 14.0341H120.776L117.195 4.8161ZM104.825 23.9995L114.754 0.0410156H120.003L130.013 24.041H124.52L122.363 18.3109H112.149L110.074 24.041H104.825V23.9995Z" fill="#221F1F"/>
<path d="M86.35 4.31783V10.3386H92.4132C94.0409 10.3386 95.1803 10.0895 95.8314 9.63271C96.4825 9.17596 96.808 8.38704 96.808 7.30745C96.808 6.18634 96.4825 5.43894 95.8721 5.02372C95.3431 4.65001 94.4885 4.40088 93.2271 4.35935H86.35M102.912 23.9995H97.3777L96.0755 21.6327L94.7734 19.2659L92.1691 14.5739H86.35V23.9995H81.4263V6.02025V4.31783V0.0410156H90.7448C90.8669 0.0410156 91.0297 0.0410156 91.1517 0.0410156H93.5933C94.2851 0.0410156 94.9768 0.0825381 95.5872 0.165583C96.1976 0.248628 96.7673 0.331673 97.2963 0.497763C97.8253 0.622331 98.2729 0.829943 98.7205 1.03756C99.1682 1.24517 99.5344 1.4943 99.8599 1.78496C100.185 2.07562 100.47 2.4078 100.714 2.7815C100.959 3.1552 101.162 3.57043 101.325 4.02717C101.488 4.48392 101.61 4.98219 101.691 5.52198C101.772 6.06178 101.813 6.64309 101.813 7.26593C101.813 7.72268 101.772 8.17942 101.732 8.59465C101.691 9.00987 101.61 9.4251 101.528 9.7988C101.447 10.1725 101.325 10.5462 101.162 10.8784C100.999 11.2106 100.837 11.5427 100.633 11.8334C100.43 12.1241 100.185 12.3732 99.9413 12.6223C99.6972 12.8715 99.4123 13.0791 99.1275 13.2452C98.8426 13.4113 98.5171 13.5773 98.1915 13.7434C97.866 13.868 97.4998 13.9926 97.0928 14.0756L102.912 23.9995Z" fill="#231F20"/>
<path d="M52.4513 4.27682H38.7786V9.75779H52.4513V14.0346H38.7786V19.7647H52.4513V24H33.1631V0L52.4513 0.0415225V4.27682Z" fill="#231F20"/>
</g>
<defs>
<clipPath id="clip0_45_1573">
<rect width="151.742" height="24" fill="white"/>
</clipPath>
</defs>
</svg>
