<svg width="122" height="59" viewBox="0 0 122 59" fill="none" xmlns="http://www.w3.org/2000/svg">
<path d="M38.1567 38.1973H45.7416V40.6364H42.1334V57.7742H38.1567V38.1973Z" fill="#0079C2"/>
<path d="M50.2383 50.4248L50.9198 40.6364H51.1481L51.8296 50.4248H50.2383ZM45.8345 57.7742H49.728L50.0965 52.5751H51.9715L52.3416 57.7742H56.2334L54.1595 38.1973H47.9084L45.8345 57.7742Z" fill="#0079C2"/>
<path d="M61.928 50.9223V54.613C61.928 55.1105 62.3193 55.2549 62.5475 55.2549C62.9226 55.2549 63.1834 54.95 63.1834 54.613V50.0558C63.1834 49.446 63.0693 48.772 61.5856 48.772H59.9714V46.6218H61.6508C62.7758 46.6218 63.1834 46.365 63.1834 45.1615V41.2782C63.1834 40.9413 62.9226 40.6364 62.5475 40.6364C62.3193 40.6364 61.928 40.7647 61.928 41.2782V44.4715H57.9497V41.6954C57.9497 40.3315 58.1127 38.1973 60.9008 38.1973H64.1943C66.9824 38.1973 67.1617 40.3315 67.1617 41.6954V44.8245C67.1617 46.9587 65.6454 47.5364 64.4552 47.4883V47.6808C67.1291 47.6167 67.1617 49.6385 67.1617 50.3286V54.276C67.1617 55.656 66.9824 57.7742 64.1943 57.7742H60.9008C58.1127 57.7742 57.9497 55.656 57.9497 54.276V50.9223H61.928Z" fill="#0079C2"/>
<path d="M69.771 38.1973H78.983V57.7742H75.0047V40.6364H73.7493V57.7742H69.771V38.1973Z" fill="#0079C2"/>
<path d="M85.5706 48.9646V40.6364H86.0923C86.5162 40.6364 86.826 40.9894 86.826 41.6152V47.9857C86.826 48.6116 86.5162 48.9646 86.0923 48.9646H85.5706ZM81.5923 57.7742H85.5706V51.1148H87.8532C90.625 51.1148 90.8043 48.9967 90.8043 47.6167V41.6954C90.8043 40.3315 90.625 38.1973 87.8532 38.1973H81.5923V57.7742Z" fill="#0079C2"/>
<path d="M98.6478 54.613C98.6478 54.95 98.3869 55.2549 98.0119 55.2549C97.7837 55.2549 97.3923 55.1105 97.3923 54.613V41.2782C97.3923 40.7647 97.7837 40.6364 98.0119 40.6364C98.3869 40.6364 98.6478 40.9413 98.6478 41.2782V54.613ZM93.4141 54.276C93.4141 55.656 93.5934 57.7742 96.3652 57.7742H99.675C102.447 57.7742 102.626 55.656 102.626 54.276V41.6954C102.626 40.3315 102.447 38.1973 99.675 38.1973H96.3652C93.5934 38.1973 93.4141 40.3315 93.4141 41.6954V54.276Z" fill="#0079C2"/>
<path d="M115.57 38.1973H120.755V57.7742H116.776V45.4985H116.63L114.575 57.7742H111.396L109.358 45.4985H109.211V57.7742H105.233V38.1973H110.401L112.994 51.9653L115.57 38.1973Z" fill="#0079C2"/>
<path d="M33.0025 11.4313C31.7846 6.184 28.7324 1.91559 28.3117 1.22559C27.6465 2.20443 25.2122 5.97539 23.9747 10.1475C22.6231 14.8171 22.4242 18.9571 22.8905 23.0169C23.3535 27.0928 25.103 31.281 25.103 31.281C26.0324 33.4633 27.4248 35.8222 28.3313 36.9775C29.6601 35.2766 32.7139 30.2059 33.6661 23.5946C34.196 19.9039 34.2188 16.6785 33.0025 11.4313ZM28.3117 35.6617C27.7134 34.5545 26.784 32.4524 26.696 29.1789C26.6731 26.0337 27.9563 23.3218 28.3313 22.7602C28.6655 23.3218 29.771 25.6807 29.903 28.9061C29.9927 32.0512 28.9297 34.5385 28.3117 35.6617ZM32.6487 20.3372C32.6031 22.343 32.3601 24.4612 32.0503 25.7288C32.1612 23.5465 31.8954 20.4816 31.3867 18.0746C30.878 15.6836 29.4384 11.672 28.2889 9.82659C27.2275 11.5917 25.9199 15.0578 25.2351 18.0585C24.547 21.0593 24.5275 24.7019 24.5275 25.793C24.3449 24.8784 23.8883 21.5888 24.0171 18.2992C24.1247 15.5873 24.7704 12.7792 25.1242 11.4955C26.4742 7.211 28.0019 4.46701 28.2889 4.03374C28.5759 4.46701 30.4998 7.85285 31.4976 11.3992C32.4906 14.9455 32.6911 18.3474 32.6487 20.3372Z" fill="#0079C2"/>
<path d="M30.3769 38.1972H21.1176V44.311C21.1258 44.311 21.1323 44.2949 21.1405 44.2949C23.322 42.1447 26.8601 42.1447 29.0432 44.2949C31.2248 46.4291 31.2248 49.9112 29.0432 52.0615C29.0335 52.0775 29.0237 52.0775 29.0139 52.0936C29.0025 52.0936 28.9911 52.1096 28.9813 52.1257C26.8046 54.2438 23.9611 55.3029 21.1176 55.3029C18.2611 55.3029 15.4046 54.2438 13.2263 52.0936C9.38495 48.3226 8.93007 42.4656 11.8583 38.1972C12.2529 37.6195 12.7078 37.0739 13.2263 36.5604C15.4046 34.4102 18.2611 33.3511 21.1176 33.3511V18.6523C10.1415 18.6523 1.24414 27.3978 1.24414 38.1972C1.24414 48.9966 10.1415 57.7581 21.1176 57.7581C26.8405 57.7581 31.996 55.3671 35.6221 51.564V38.1972H30.3769Z" fill="#0079C2"/>
</svg>
