<svg width="170" height="39" viewBox="0 0 170 39" fill="none" xmlns="http://www.w3.org/2000/svg">
<g clip-path="url(#clip0_45_1323)">
<path d="M38.0408 13.375L19.0205 0.59668V25.6245L38.0408 38.4056V13.375Z" fill="#00589C"/>
<path d="M0.00341797 19.5025C0.00570385 24.5152 2.01005 29.322 5.57602 32.8665C9.14198 36.411 13.9778 38.4033 19.0209 38.4056V0.59375C13.9768 0.596023 9.14012 2.5891 5.57399 6.13485C2.00786 9.68061 0.00417973 14.4888 0.00341797 19.5025ZM38.0412 0.596608V38.4056C48.539 38.4056 57.0586 29.9343 57.0586 19.4997C57.0586 9.06497 48.539 0.596608 38.0412 0.596608Z" fill="#0080C8"/>
<path d="M114.004 19.631L109.95 13.1833H106.367V25.773H110.229V19.4453L114.237 25.773H117.82V13.1833H114.001L114.004 19.631ZM88.2669 12.9775H86.2714C83.6348 12.9775 81.4783 14.8467 81.4783 17.7447V21.2573C81.4783 24.1667 83.6348 26.0216 86.2714 26.0216H88.2669C90.9007 26.0216 93.0601 24.1496 93.0601 21.2573V17.7419C93.0601 14.6924 90.9036 12.9775 88.2669 12.9775ZM88.9685 21.5374C88.967 21.9386 88.8059 22.323 88.5205 22.6068C88.235 22.8905 87.8483 23.0506 87.4446 23.0521H87.0938C86.6901 23.0506 86.3033 22.8905 86.0179 22.6068C85.7324 22.323 85.5714 21.9386 85.5699 21.5374V17.4589C85.5699 16.6244 86.2571 15.9413 87.0938 15.9413H87.4417C88.2813 15.9413 88.9656 16.6215 88.9656 17.4561L88.9685 21.5374ZM119.599 25.773H123.677V13.1833H119.599V25.773ZM165.173 22.3719V13.1862H161.099V25.773H169.998V22.3748L165.173 22.3719ZM131.676 12.9775H129.85C127.213 12.9775 125.057 14.8467 125.057 17.7447V21.2573C125.057 24.1667 127.213 26.0216 129.85 26.0216H131.676C134.312 26.0216 136.469 24.1496 136.469 21.2573V21.0972H132.377V21.5374C132.376 21.9386 132.215 22.323 131.929 22.6068C131.644 22.8905 131.257 23.0506 130.853 23.0521H130.675C130.271 23.0506 129.885 22.8905 129.599 22.6068C129.314 22.323 129.153 21.9386 129.151 21.5374V17.4589C129.151 16.6244 129.836 15.9413 130.675 15.9413H130.851C131.69 15.9413 132.377 16.6215 132.377 17.4561V18.0706H136.469V17.7447C136.469 14.6924 134.312 12.9775 131.676 12.9775ZM105.205 17.8076V17.1989C105.205 14.6295 103.049 13.1833 100.412 13.1833H94.4431V25.7701H98.46V22.0461H99.659L101.35 25.773H105.571L103.213 21.1601C104.421 20.5027 105.208 19.3595 105.208 17.8048M101.246 17.6619C101.246 18.1191 101.01 19.1423 99.8315 19.1423H98.4628V16.0071H99.9983C100.412 16.0071 101.246 16.4786 101.246 17.4618V17.6619ZM76.2365 19.511L72.0558 13.1833H68.4731V25.773H72.3347V19.3881L76.5183 25.7701H80.0981V13.1833H76.2365V19.511ZM154.388 20.9972H158.98V18.002H154.388V16.4672H159.394V13.1862H150.311V25.773H159.765V22.4862H154.385L154.388 20.9972ZM149.339 13.1833H144.931L142.78 17.9448H141.774V13.1833H137.7V25.7701H141.774V21.303H142.775L144.974 25.7758H149.649L146.196 19.4253L149.339 13.1833Z" fill="#626261"/>
</g>
<defs>
<clipPath id="clip0_45_1323">
<rect width="170" height="39" fill="white"/>
</clipPath>
</defs>
</svg>
