<svg width="146" height="75" viewBox="0 0 146 75" fill="none" xmlns="http://www.w3.org/2000/svg">
<g clip-path="url(#clip0_45_1365)">
<path fill-rule="evenodd" clip-rule="evenodd" d="M55.6522 56.0224V54.7333H52.365V56.0224H51.981V53.2568H52.365V54.456H55.6522V53.2568H56.0317V56.0224H55.6522Z" fill="#201C26"/>
<path fill-rule="evenodd" clip-rule="evenodd" d="M57.3257 56.0224V53.2568H60.6001V53.5326H57.7036V54.456H60.5236V54.7295H57.7036V55.7451H60.6001V56.0224H57.3257Z" fill="#201C26"/>
<path fill-rule="evenodd" clip-rule="evenodd" d="M67.2452 54.8031V54.4585C67.2452 53.8011 66.918 53.4702 65.8811 53.4702H64.7525V53.2246H64.3677V53.4702H63.2528C62.2091 53.4702 61.8818 53.746 61.8818 54.4585V54.8031C61.8818 55.5066 62.2515 55.7499 63.2528 55.7499H64.3677V56.0219H64.7525V55.7499H65.8811C66.8764 55.7499 67.2452 55.5194 67.2452 54.8031ZM66.8597 54.8031C66.8597 55.3358 66.6014 55.4764 65.8811 55.4764H64.7525V53.7467H65.8811C66.5651 53.7467 66.8597 53.9069 66.8597 54.4434V54.8031ZM64.3677 55.4764H63.2528C62.5317 55.4764 62.2568 55.3358 62.2568 54.7993V54.4313C62.2568 53.9024 62.5582 53.7467 63.2528 53.7467H64.3677V55.4764Z" fill="#201C26"/>
<path fill-rule="evenodd" clip-rule="evenodd" d="M70.1718 53.5326V56.0224H70.5543V53.5326H72.3623V53.2568H68.3774V53.5326H70.1718Z" fill="#201C26"/>
<path fill-rule="evenodd" clip-rule="evenodd" d="M77.1854 56.0226V53.2578H74.6935C73.7732 53.2578 73.3937 53.4853 73.3937 54.1139C73.3937 54.6338 73.7732 54.8764 74.4988 54.8764L73.2407 56.0234H73.7732L74.9571 54.8764H76.7999V56.0234L77.1854 56.0226ZM76.7999 54.6028H74.5731C73.9807 54.6028 73.774 54.5257 73.774 54.1139C73.774 53.6847 73.9906 53.5329 74.5352 53.5329H76.7999V54.6028Z" fill="#201C26"/>
<path fill-rule="evenodd" clip-rule="evenodd" d="M82.25 56.0224V54.7333H78.965V56.0224H78.5825V53.2568H78.965V54.456H82.25V53.2568H82.634V56.0224H82.25Z" fill="#201C26"/>
<path fill-rule="evenodd" clip-rule="evenodd" d="M88.0686 56.0226L86.1522 53.2578H85.5637L83.6489 56.0226H84.0716L84.5472 55.329H87.1483L87.6194 56.0226H88.0686ZM86.9483 55.0464H84.7548L85.8485 53.4558L86.9483 55.0464Z" fill="#201C26"/>
<path fill-rule="evenodd" clip-rule="evenodd" d="M92.4368 56.0224V54.8754H90.5947L89.4048 56.0224H88.8799L90.1289 54.8754C89.4048 54.8754 89.0299 54.6328 89.0299 54.113C89.0299 53.4843 89.4048 53.2568 90.3251 53.2568H92.8223V56.0217L92.4368 56.0224ZM92.4368 53.5326H90.1728C89.6297 53.5326 89.4048 53.6838 89.4048 54.1137C89.4048 54.5263 89.6138 54.6026 90.2092 54.6026H92.4368V53.5326Z" fill="#201C26"/>
<path fill-rule="evenodd" clip-rule="evenodd" d="M99.9223 56.0224H100.594L97.9189 54.5731L100.534 53.2568H99.8564L97.5212 54.4432H96.9001V53.2568H96.5161V56.0224H96.9001V54.7212H97.5371L99.9223 56.0224Z" fill="#201C26"/>
<path fill-rule="evenodd" clip-rule="evenodd" d="M105.57 55.0744C105.57 55.6154 105.389 55.7461 104.612 55.7461H102.993C102.273 55.7461 102.004 55.6071 102.004 55.0744V54.1918C102.004 53.6538 102.299 53.508 102.993 53.508H104.612C105.35 53.508 105.57 53.6447 105.57 54.1918V55.0744ZM105.95 55.0744V54.2092C105.95 53.4052 105.509 53.2246 104.612 53.2246H102.997C101.947 53.2246 101.62 53.5072 101.62 54.2092V55.0744C101.62 55.7847 101.993 56.0227 102.997 56.0227H104.612C105.595 56.0227 105.95 55.8617 105.95 55.0744Z" fill="#201C26"/>
<path fill-rule="evenodd" clip-rule="evenodd" d="M111.769 53.2568H112.592V56.0224H112.208V53.4813H111.996L109.999 56.0224H109.803L107.809 53.4813H107.593V56.0224H107.212V53.2568H108.03L109.906 55.6151L111.769 53.2568Z" fill="#201C26"/>
<path fill-rule="evenodd" clip-rule="evenodd" d="M114.35 56.0224V53.5326H117.626V56.0224H118.013V53.2568H113.961V56.0224H114.35Z" fill="#201C26"/>
<path fill-rule="evenodd" clip-rule="evenodd" d="M123.001 56.0226L122.531 55.329H119.93L119.447 56.0226H119.024L120.944 53.2578H121.525L123.442 56.0226H123.001ZM121.234 53.455L120.133 55.0456H122.33L121.234 53.455Z" fill="#201C26"/>
<path fill-rule="evenodd" clip-rule="evenodd" d="M128.591 56.0224V53.2568H128.21V54.456H124.929V53.2568H124.541V56.0224H124.929V54.7333H128.21V56.0224H128.591Z" fill="#201C26"/>
<path fill-rule="evenodd" clip-rule="evenodd" d="M133.958 56.0224V53.2568H133.211L130.287 55.8071H130.254V53.2568H129.876V56.0224H130.498L133.429 53.4707H133.571V56.0224H133.958Z" fill="#201C26"/>
<path fill-rule="evenodd" clip-rule="evenodd" d="M138.585 54.6028H136.353C135.758 54.6028 135.558 54.5257 135.558 54.1139C135.558 53.6847 135.768 53.5329 136.311 53.5329H138.585V54.6028ZM138.962 56.0226V53.2578H136.472C135.558 53.2578 135.174 53.4853 135.174 54.1139C135.174 54.6338 135.558 54.8764 136.281 54.8764L135.019 56.0234H135.558L136.736 54.8764H138.585V56.0234L138.962 56.0226Z" fill="#201C26"/>
<path fill-rule="evenodd" clip-rule="evenodd" d="M51.9477 60.1199C51.9477 60.1199 60.2765 60.0081 60.9438 60.4539C61.6103 60.8937 62.2761 61.3425 62.3875 62.2243C62.498 63.1114 61.9436 65.877 59.8326 65.9896C57.7247 66.0999 55.285 65.877 55.285 65.877L55.1759 68.0932L51.8447 67.9829L51.9477 60.1199Z" fill="#201C26"/>
<path fill-rule="evenodd" clip-rule="evenodd" d="M55.3932 62.3327L55.2856 63.6641C55.2856 63.6641 57.9473 64.2157 58.5017 63.6641C59.0569 63.1117 58.6115 62.2246 57.7261 62.2246C56.8399 62.2246 55.3932 62.3327 55.3932 62.3327Z" fill="#F9F8F7"/>
<path fill-rule="evenodd" clip-rule="evenodd" d="M62.3899 62.2244C63.2821 61.2292 64.8349 59.6771 68.3812 59.897C71.9343 60.1199 73.8256 61.5556 73.8256 63.2263C73.8256 64.8819 73.9309 67.0958 71.8222 67.757C69.7158 68.425 67.6033 68.425 66.1619 68.2074C64.7182 67.9829 62.3899 66.6515 62.0581 64.8826C61.7241 63.1107 62.3899 62.2244 62.3899 62.2244Z" fill="#241C24"/>
<path fill-rule="evenodd" clip-rule="evenodd" d="M65.7195 64.3266C65.5165 62.8962 66.7148 62 67.7138 62C68.7113 62 70.3724 62.1126 70.2626 63.9964C70.1543 65.8771 70.0475 65.766 69.0492 66.1C68.0494 66.4317 66.0505 66.7672 65.7195 64.3266Z" fill="#F9F8F7"/>
<path fill-rule="evenodd" clip-rule="evenodd" d="M85.6935 63.227C85.1413 62.2251 83.9241 60.3391 82.0328 60.2325C80.1468 60.1207 77.592 59.8978 76.3725 60.3391C75.1485 60.7864 74.1578 61.8896 73.9328 62.8863C73.7124 63.8859 73.4837 66.1007 74.9304 67.0966C76.3718 68.0932 78.7085 68.8708 80.9247 68.4257C83.1402 67.9837 85.2512 67.0966 85.5844 65.2136H81.8132C81.8132 65.2136 80.8096 66.5442 79.5931 66.4324C79.5931 66.4324 78.4759 66.7679 77.7018 65.6624C76.9292 64.5494 77.0376 63.5542 77.8124 62.5561C78.5964 61.5564 80.7005 61.8888 80.9239 62.3331C81.1444 62.7774 81.4776 63.4401 81.4776 63.4401L85.6935 63.227Z" fill="#241C24"/>
<path fill-rule="evenodd" clip-rule="evenodd" d="M85.3645 60.3383H88.8071V62.9996H92.242V60.1191H95.7974V68.0925H92.4647V65.4349H88.9184V68.0925H85.2524L85.3645 60.3383Z" fill="#241C24"/>
<path fill-rule="evenodd" clip-rule="evenodd" d="M96.9121 60.1191L106.79 60.2317V62.2243H100.798V62.9996H105.793V65.2128H100.573V66.214H107.01V68.3146H97.0212L96.9121 60.1191Z" fill="#241C24"/>
<path fill-rule="evenodd" clip-rule="evenodd" d="M111.892 60.1191H115.333C115.333 60.1191 115.114 60.6745 115.562 60.565C115.999 60.4539 118.996 60.3375 119.888 61.4505C120.773 62.5553 121.109 63.9955 120.217 64.9929C119.326 65.9903 118.55 66.4316 118.001 66.4316C117.441 66.4316 115.562 66.5427 115.562 66.5427V68.3146H111.892V66.4316C111.892 66.4316 109.559 66.3205 108.783 66.0999C108.01 65.877 106.563 64.9929 106.563 63.5542C106.563 62.1132 107.34 60.8937 108.454 60.7856C109.559 60.6753 111.67 60.6753 111.67 60.6753L111.892 60.1191Z" fill="#241C24"/>
<path fill-rule="evenodd" clip-rule="evenodd" d="M111.892 62.5559L111.782 64.216C111.782 64.216 110.007 64.4389 110.007 63.7785C110.007 63.1112 110.342 62.4463 111.892 62.5559Z" fill="#F9F8F7"/>
<path fill-rule="evenodd" clip-rule="evenodd" d="M115.561 62.6663L115.666 64.2169C115.666 64.2169 116.665 64.6619 117.224 63.8859C117.773 63.1114 116.774 62.556 115.561 62.6663Z" fill="#F9F8F7"/>
<path fill-rule="evenodd" clip-rule="evenodd" d="M122.547 62.5555V68.4252H126.098V62.5555H129.315L129.987 61.6722L128.988 60.4541H119.664C119.667 60.4541 119.218 62.2245 120.217 62.3326C121.215 62.4459 122.547 62.5555 122.547 62.5555Z" fill="#241C24"/>
<path fill-rule="evenodd" clip-rule="evenodd" d="M132.87 60.4541V62.6658C132.87 62.6658 137.092 62.4459 137.87 62.8857C138.646 63.33 139.423 63.9965 139.533 64.7672C139.644 65.547 139.423 66.7673 138.646 67.4285C137.87 68.0927 136.985 68.5347 136.089 68.5347H129.657V60.5652L132.87 60.4541Z" fill="#241C24"/>
<path fill-rule="evenodd" clip-rule="evenodd" d="M133.209 64.9934V66.3211H135.425C135.977 66.3211 136.758 65.1038 135.757 64.8831C134.76 64.661 133.209 64.9934 133.209 64.9934Z" fill="#F9F8F7"/>
<path fill-rule="evenodd" clip-rule="evenodd" d="M6.44141 23.5781H12.1047V42.7369L6.44141 37.7513V23.5781Z" fill="#241C24"/>
<path fill-rule="evenodd" clip-rule="evenodd" d="M13.2153 17.2666H18.6537V48.9385L13.2153 43.727V17.2666Z" fill="#241C24"/>
<path fill-rule="evenodd" clip-rule="evenodd" d="M19.7646 10.9561H25.3151V40.9633H19.7646V10.9561Z" fill="#241C24"/>
<path fill-rule="evenodd" clip-rule="evenodd" d="M26.4214 4.64453H32.1938V34.7629H26.4214V4.64453Z" fill="#241C24"/>
<path fill-rule="evenodd" clip-rule="evenodd" d="M32.9702 10.6201H38.5222V40.9629H32.9702V10.6201Z" fill="#241C24"/>
<path fill-rule="evenodd" clip-rule="evenodd" d="M39.8555 17.1504H45.2938V43.6176L39.8555 48.9386V17.1504Z" fill="#241C24"/>
<path fill-rule="evenodd" clip-rule="evenodd" d="M46.2905 23.4658H51.8455V37.3096L46.2905 42.7364V23.4658Z" fill="#241C24"/>
<path fill-rule="evenodd" clip-rule="evenodd" d="M19.7646 41.6328H25.3151V69.4178H19.7646V41.6328Z" fill="#B3B31C"/>
<path fill-rule="evenodd" clip-rule="evenodd" d="M26.4214 35.6523H31.8583V69.4173H26.4214V35.6523Z" fill="#B3B31C"/>
<path fill-rule="evenodd" clip-rule="evenodd" d="M32.9702 41.7383H38.5222V69.4175H32.9702V41.7383Z" fill="#B3B31C"/>
</g>
<defs>
<clipPath id="clip0_45_1365">
<rect width="146" height="75" fill="white"/>
</clipPath>
</defs>
</svg>
