<svg width="158" height="53" viewBox="0 0 158 53" fill="none" xmlns="http://www.w3.org/2000/svg">
<g clip-path="url(#clip0_45_1479)">
<path d="M38.7399 24.8763C38.7399 24.8763 39.3444 18.0221 39.4059 17.351C39.4238 16.9608 39.363 16.571 39.227 16.2049C39.0911 15.8387 38.8828 15.5037 38.6146 15.2197C38.3464 14.9358 38.0238 14.7087 37.6659 14.5521C37.3081 14.3955 36.9224 14.3125 36.5319 14.3081H19.2313C18.4337 14.2528 17.6464 14.5136 17.0396 15.0341C16.4328 15.5546 16.0552 16.2931 15.9884 17.0897C15.9116 17.894 14.4771 34.4661 14.39 35.4189C14.3389 35.8247 14.3738 36.2367 14.4924 36.6281C14.6109 37.0195 14.8105 37.3816 15.0782 37.6909C15.3459 38.0001 15.6757 38.2495 16.0461 38.4229C16.4165 38.5964 16.8193 38.6899 17.2282 38.6975H34.4263C36.7112 38.6975 37.5974 37.4885 37.7921 35.6238C37.91 34.5071 38.4735 27.7604 38.4735 27.7604H28.0737L27.628 32.9754H24.9947L26.1269 20.0302H28.7602L28.3401 24.8763H38.7399Z" fill="#008C95"/>
<path d="M54.7848 16.3931C54.4159 17.4586 51.3882 26.9306 51.3882 26.9306L52.7355 14.2979H42.3409L40.1636 38.6975H47.9967C49.964 38.6975 50.6351 37.5808 50.963 36.6843C51.3574 35.6187 54.2417 27.6477 54.2417 27.6477L53.1812 38.6975H63.581L65.7225 14.3081H57.5615C56.9341 14.3035 56.3227 14.5051 55.821 14.8818C55.3194 15.2584 54.9553 15.7894 54.7848 16.3931Z" fill="#008C95"/>
<path d="M107.462 14.3076L106.488 25.4291H103.85L104.823 14.3076H94.4286C94.4286 14.3076 93.4296 26.0899 93.322 27.2221C93.199 28.5796 93.9675 30.5006 96.2677 30.5006H106.048L105.832 32.9749H92.8199L92.3076 38.697H113C114.403 38.697 115.756 37.7801 115.94 35.8232C116.058 34.5681 117.846 14.3076 117.846 14.3076H107.462Z" fill="#008C95"/>
<path d="M134.593 14.3125H120.474L118.343 38.6968H128.737L129.398 31.151H139.501C141.289 31.151 142.472 30.2391 142.667 28.1491C142.739 27.3345 143.564 18.0931 143.615 17.2786C143.743 15.4754 142.308 14.3125 140.541 14.3125H134.593ZM129.844 26.0948L130.356 20.0449H132.964L132.452 26.0948H129.844Z" fill="#008C95"/>
<path d="M78.0535 22.4989L78.2738 20.0297H91.2966L91.8089 14.3076H68.3709L66.2397 38.6919H86.9881C88.3098 38.6919 89.7392 37.9133 89.9236 35.8744C90.0619 34.3376 90.7023 27.094 90.8201 25.7775C90.9738 24.0204 89.857 22.4989 87.6695 22.4989H78.0535ZM79.7339 33.6204H77.0801L77.5924 27.5755H80.241L79.7339 33.6204Z" fill="#008C95"/>
</g>
<defs>
<clipPath id="clip0_45_1479">
<rect width="158" height="53" fill="white"/>
</clipPath>
</defs>
</svg>
