<svg width="134" height="53" viewBox="0 0 134 53" fill="none" xmlns="http://www.w3.org/2000/svg">
<path d="M125.957 15.8496C125.957 15.8496 119.813 22.4813 118.752 23.6274V15.8496H113.81V37.111H118.752V29.9381C118.907 29.7781 119.913 28.7282 120.324 28.3008C120.788 28.9715 126.426 37.111 126.426 37.111H132.774C132.774 37.111 124.152 25.139 123.802 24.6506C124.217 24.2278 132.46 15.8496 132.46 15.8496H125.957ZM93.496 22.9189L93.4668 23.3148H98.3507L98.4237 23.0437C98.7423 21.8634 99.333 19.6682 102.592 19.6682C103.391 19.6682 105.983 19.9837 106.901 23.793H101.308V28.0658H107.12C106.876 29.9076 105.966 33.2924 102.563 33.2924C100.397 33.2924 98.8911 31.9575 98.4301 29.631L98.3708 29.335H93.4194L93.5015 29.7716C94.439 34.7762 97.7729 37.6466 102.649 37.6466C108.604 37.6466 112.303 33.3793 112.303 26.509C112.303 19.708 108.491 15.314 102.592 15.314C96.7276 15.314 93.7653 19.2557 93.496 22.9189ZM88.6592 15.8496C88.6592 15.8496 85.1729 25.3554 84.659 26.7569C84.0145 25.4036 79.4629 15.8496 79.4629 15.8496H73.8587C73.8587 15.8496 82.0993 31.7522 82.2791 32.1C81.683 33.1823 81.4292 33.3488 80.5172 33.3488C80.0425 33.3488 79.336 33.1878 79.021 33.0435L78.5071 32.8077V37.3108L78.7828 37.3811C79.252 37.5004 80.5811 37.6466 81.4639 37.6466C83.6238 37.6466 85.1519 37.0046 86.5696 33.7234C86.5696 33.7224 94.2423 15.8496 94.2423 15.8496H88.6592ZM59.0503 18.1515C57.2272 20.1256 56.2642 23.0154 56.2642 26.5094C56.2642 33.3788 59.9421 37.6469 65.8621 37.6469C70.736 37.6469 74.0689 34.7765 75.0064 29.772L75.0886 29.3345H70.1389L70.0796 29.6305C69.6159 31.9579 68.1096 33.2918 65.9443 33.2918C62.4489 33.2918 61.2028 29.8173 61.2028 26.5649C61.2028 21.4799 63.653 19.6677 65.9443 19.6677C69.1795 19.6677 69.7683 21.8638 70.0851 23.0423L70.159 23.3142H75.0411L75.0119 22.9183C74.7408 19.256 71.7785 15.3135 65.9178 15.3135C63.1381 15.3135 60.7637 16.295 59.0503 18.1515Z" fill="#717073"/>
<path d="M34.4999 30.2208C34.2927 30.4308 27.2973 37.4177 26.8071 37.9172C27.7593 38.611 31.8471 41.1863 37.3134 39.2863C37.7288 39.1355 38.4627 38.9459 38.8927 38.7368L39.329 38.2623C40.65 36.7063 42.3844 34.6083 43.3594 30.2208C41.7828 29.5446 39.9343 29.1006 38.2436 29.1006C36.7876 29.1006 35.4493 29.429 34.4999 30.2208Z" fill="url(#paint0_linear_45_1525)"/>
<path d="M22.5307 9.18135C22.5307 9.18135 20.6702 9.68919 20.6675 9.69011L19.6104 10.0759C18.0439 10.7169 16.6463 11.6558 15.3345 12.7178C21.7383 10.7863 26.2871 14.5679 26.3583 14.629C26.3583 14.629 34.2785 21.0775 34.4994 21.3013C36.4557 23.2856 40.9954 23.4521 43.1133 21.7898C42.602 19.5586 40.57 15.64 38.3882 13.7492L37.783 13.1868C36.1389 11.79 34.7604 10.8834 32.6462 10.0185L31.527 9.62073C31.527 9.62073 29.7479 9.15544 29.7469 9.15544C28.5849 8.91308 27.2676 8.80762 26.0754 8.80762C24.8859 8.80762 23.6937 8.93251 22.5307 9.18135Z" fill="url(#paint1_linear_45_1525)"/>
<path d="M12.7866 33.8817C12.7866 35.0408 12.9564 36.3146 13.3909 37.6698C13.5498 38.1508 13.7479 38.6374 13.9779 39.1351L14.0053 39.198C15.6357 40.8075 17.5208 42.0647 19.6168 42.9231L20.6775 43.307L22.537 43.8186C23.7 44.0656 24.895 44.1914 26.0872 44.1914C27.2776 44.1914 28.4707 44.1109 29.6319 43.8648C29.6319 43.8648 31.5316 43.3801 31.5343 43.3792L32.7914 42.9231C34.3569 42.2811 35.9253 41.3441 37.2371 40.2775C30.8323 42.2099 25.8809 38.432 25.827 38.3895L25.8161 38.3802C25.8161 38.3802 15.3646 27.7912 14.8123 27.2324C14.3084 27.9466 12.7866 30.397 12.7866 33.8817Z" fill="url(#paint2_linear_45_1525)"/>
<path d="M14.8463 13.7099C14.4373 13.8616 14.0128 14.0401 13.5884 14.2464L13.5519 14.2603C11.9607 15.9143 10.7219 17.8282 9.87662 19.9493L9.49503 21.0205L8.99113 22.9095C8.74739 24.0834 8.62598 25.2915 8.62598 26.5005C8.62598 27.7096 8.74739 28.9214 8.99113 30.0971L9.49503 31.9833L9.87662 33.0563C10.5111 34.6474 11.4358 36.0646 12.4884 37.3902C12.1013 36.0766 11.9224 34.8278 11.9224 33.6909C11.9224 29.2146 14.3123 26.2822 14.3451 26.2434L14.3579 26.2286C14.3579 26.2286 24.8103 15.6386 25.3617 15.0808C24.6552 14.5693 22.2342 13.0253 18.8064 13.0244C17.6014 13.0244 16.2713 13.2159 14.8463 13.7099Z" fill="url(#paint3_linear_45_1525)"/>
<path d="M46.5681 25.1001V24.9826C47.4782 22.9965 49.1889 22.9567 51.0731 24.7661C51.0731 21.7375 50.4314 19.3333 48.9927 17.9753C46.9579 16.1447 44.829 17.3371 43.0891 14.8468C42.8837 12.6748 44.3598 11.7544 46.8958 12.364C45.3823 9.76646 43.6323 8.01164 41.7298 7.56207C41.3017 7.46493 40.9146 7.43995 40.5431 7.48343C39.8247 7.51951 39.2039 7.7369 38.6023 7.91636C38.291 8.01164 37.977 8.11062 37.6675 8.17353C37.4539 8.2096 37.2403 8.24845 37.0057 8.24845C36.437 8.28731 35.8098 8.1874 35.0713 7.83866C33.849 6.07366 34.6286 4.58526 37.0057 3.81746C37.066 3.80453 37.108 3.78509 37.1445 3.75918C37.108 3.74252 37.066 3.72033 37.0057 3.70646C35.7067 2.95346 34.4433 2.42156 33.2967 2.16717C32.1876 1.93129 31.1779 1.91186 30.2879 2.18662C28.2284 2.89521 27.7811 4.62782 26.1288 5.43261C25.7783 5.61392 25.3355 5.74898 24.8079 5.80911H24.6919C22.7302 4.88128 22.6909 3.15051 24.4756 1.24121C22.1861 1.24121 20.2417 1.63714 18.8441 2.46228C18.4369 2.7176 18.0681 3.01269 17.7541 3.34755C16.1246 5.24113 16.9572 7.20408 15.2291 8.87843C15.0748 9.03753 14.8858 9.18185 14.6859 9.33263H14.591H14.5691C14.2204 9.35391 13.9109 9.33263 13.6179 9.27527C12.2376 8.93856 11.7346 7.56208 12.2376 5.47517C12.0477 5.59172 11.8524 5.71013 11.657 5.82853C9.40403 7.26606 7.86766 8.89785 7.46052 10.6693C6.91645 13.3908 9.0334 14.6692 7.7143 17.4814C5.94515 18.7607 4.43069 17.9347 3.68944 15.3982C2.19597 18.0346 1.57157 20.4536 2.13755 22.3444C3.00934 24.9253 5.38191 24.9826 5.72971 27.915V28.0353C4.83783 30.0223 3.10885 30.0796 1.22559 28.2721C1.22559 31.2822 1.88377 33.7049 3.32155 35.0638C5.35726 36.8723 7.48699 35.6836 9.22967 38.1729C9.43324 40.3431 7.95804 41.2626 5.41933 40.653C6.93836 43.2708 8.68468 45.0432 10.588 45.478C10.976 45.5585 11.3265 45.5761 11.657 45.5761C12.3764 45.5363 12.9962 45.3402 13.6179 45.1441C13.9292 45.0432 14.2404 44.947 14.5691 44.8647H14.591C14.8037 44.8286 15.0191 44.7852 15.2291 44.7704C15.8471 44.7334 16.5016 44.8268 17.2684 45.1922C18.4835 46.9711 17.682 48.4789 15.2291 49.2402C15.2291 49.2402 15.2117 49.2578 15.1917 49.2578C15.2117 49.28 15.2291 49.28 15.2291 49.2929C16.5126 50.0256 17.7185 50.5334 18.8441 50.8128C20.0262 51.0884 21.0961 51.1097 22.0483 50.8128C24.0867 50.1245 24.5395 48.4113 26.1288 47.6029C26.5159 47.4049 26.9623 47.2689 27.5273 47.1921H27.6433C29.6078 48.1163 29.6479 49.8507 27.8587 51.7582C30.0514 51.7582 31.9192 51.4039 33.2967 50.6379C33.7833 50.3595 34.2123 50.0431 34.5811 49.65C36.1896 47.7795 35.3963 45.8536 37.0057 44.1987C37.202 44.0016 37.4165 43.8231 37.6675 43.6446C37.6493 43.6649 37.631 43.6649 37.631 43.6649C37.631 43.6446 37.6493 43.6446 37.6675 43.6279C37.6675 43.6279 37.6867 43.6085 37.705 43.6085C37.6931 43.6196 37.6822 43.6316 37.6675 43.6446C37.9971 43.6279 38.3139 43.6446 38.6023 43.6853C40.0547 43.9628 40.6015 45.3605 40.0958 47.5076C40.251 47.4262 40.4062 47.3272 40.5431 47.2264C42.8764 45.7713 44.4493 44.0988 44.8592 42.2884C45.4023 39.5512 43.2808 38.2941 44.5853 35.4755C44.5853 35.4967 44.5643 35.5189 44.5643 35.5346C46.3335 34.2757 47.8461 35.1036 48.5874 37.6225C50.0826 35.0037 50.7061 32.5828 50.1383 30.6929C49.2839 28.1139 46.8958 28.0353 46.5681 25.1001ZM40.5431 13.7803C43.478 17.1881 45.2645 21.6386 45.2645 26.4997C45.2645 31.3627 43.478 35.8122 40.5431 39.2164C39.9424 39.9286 39.2989 40.5743 38.6023 41.1839C38.291 41.4402 37.977 41.6973 37.6675 41.9517C37.4539 42.1108 37.2403 42.269 37.0057 42.4272C35.8619 43.2348 34.6195 43.9221 33.2967 44.4743C31.0821 45.379 28.6538 45.8739 26.1288 45.8739C23.5645 45.8739 21.0961 45.3605 18.8441 44.4142C17.5816 43.8629 16.3574 43.195 15.2291 42.3874C15.0191 42.2292 14.8037 42.072 14.591 41.9147L14.5691 41.8953C14.2404 41.6381 13.9292 41.3865 13.6179 41.1053C12.9177 40.4976 12.2586 39.8278 11.657 39.1183C8.77962 35.7345 7.0342 31.3035 7.0342 26.4997C7.0342 21.6746 8.77962 17.2686 11.657 13.8589C12.2586 13.1512 12.9177 12.4833 13.6179 11.8737C13.9292 11.5962 14.2404 11.3391 14.5691 11.0847C14.5691 11.0847 14.591 11.0847 14.591 11.0652C14.8037 10.9052 15.0191 10.7507 15.2291 10.5944C16.3574 9.82289 17.5816 9.13465 18.8441 8.60459C21.0961 7.66012 23.5645 7.12729 26.1288 7.12729C28.6538 7.12729 31.0821 7.63792 33.2967 8.54354C34.6195 9.07914 35.8619 9.76646 37.0057 10.5712C37.2403 10.7119 37.4539 10.8885 37.6675 11.0486C37.977 11.2835 38.291 11.5342 38.6023 11.7951L40.5431 13.7803Z" fill="#C6C6C7"/>
<defs>
<linearGradient id="paint0_linear_45_1525" x1="44.2564" y1="26.8157" x2="20.6542" y2="46.8376" gradientUnits="userSpaceOnUse">
<stop stop-color="#D4D4D5"/>
<stop offset="0.869568" stop-color="#717073"/>
<stop offset="1" stop-color="#717073"/>
</linearGradient>
<linearGradient id="paint1_linear_45_1525" x1="24.4584" y1="10.8205" x2="43.5797" y2="31.7248" gradientUnits="userSpaceOnUse">
<stop stop-color="#FFF799"/>
<stop offset="1" stop-color="#FFF200"/>
</linearGradient>
<linearGradient id="paint2_linear_45_1525" x1="31.2022" y1="41.2378" x2="9.73886" y2="22.7253" gradientUnits="userSpaceOnUse">
<stop stop-color="#AAA9AB"/>
<stop offset="1" stop-color="#717073"/>
</linearGradient>
<linearGradient id="paint3_linear_45_1525" x1="8.39248" y1="33.2332" x2="24.6128" y2="17.3919" gradientUnits="userSpaceOnUse">
<stop stop-color="#C5CA74"/>
<stop offset="0.953415" stop-color="#9FA617"/>
<stop offset="1" stop-color="#9FA617"/>
</linearGradient>
</defs>
</svg>
